NotoSans-CondensedBoldItalic.ufo
<glyph name="ampersand" format="2">
  <advance width="1057"/>
  <unicode hex="0026"/>
  <outline>
    <contour>
      <point x="291" y="-20" type="curve" smooth="yes"/>
      <point x="420" y="-20"/>
      <point x="502" y="29"/>
      <point x="602" y="104" type="curve"/>
      <point x="639" y="0" type="line"/>
      <point x="940" y="0" type="line"/>
      <point x="813" y="287" type="line"/>
      <point x="905" y="416"/>
      <point x="997" y="600"/>
      <point x="1049" y="760" type="curve"/>
      <point x="797" y="760" type="line"/>
      <point x="768" y="664"/>
      <point x="735" y="584"/>
      <point x="702" y="520" type="curve"/>
      <point x="610" y="770" type="line"/>
      <point x="778" y="901"/>
      <point x="889" y="1059"/>
      <point x="889" y="1239" type="curve" smooth="yes"/>
      <point x="889" y="1405"/>
      <point x="764" y="1481"/>
      <point x="629" y="1481" type="curve" smooth="yes"/>
      <point x="403" y="1481"/>
      <point x="262" y="1294"/>
      <point x="262" y="1063" type="curve" smooth="yes"/>
      <point x="262" y="963"/>
      <point x="281" y="881"/>
      <point x="313" y="803" type="curve"/>
      <point x="119" y="676"/>
      <point x="-4" y="500"/>
      <point x="-4" y="285" type="curve" smooth="yes"/>
      <point x="-4" y="92"/>
      <point x="109" y="-20"/>
    </contour>
    <contour>
      <point x="352" y="201" type="curve" smooth="yes"/>
      <point x="289" y="201"/>
      <point x="254" y="246"/>
      <point x="254" y="328" type="curve" smooth="yes"/>
      <point x="254" y="451"/>
      <point x="303" y="555"/>
      <point x="391" y="633" type="curve"/>
      <point x="516" y="297" type="line"/>
      <point x="467" y="244"/>
      <point x="418" y="201"/>
    </contour>
    <contour>
      <point x="526" y="936" type="curve"/>
      <point x="508" y="987"/>
      <point x="500" y="1038"/>
      <point x="500" y="1104" type="curve" smooth="yes"/>
      <point x="500" y="1186"/>
      <point x="526" y="1296"/>
      <point x="596" y="1296" type="curve" smooth="yes"/>
      <point x="643" y="1296"/>
      <point x="655" y="1253"/>
      <point x="655" y="1206" type="curve" smooth="yes"/>
      <point x="655" y="1106"/>
      <point x="600" y="1004"/>
    </contour>
  </outline>
</glyph>
<glyph name="parenleft" format="2">
  <advance width="553"/>
  <unicode hex="0028"/>
  <outline>
    <contour>
      <point x="115" y="-324" type="curve"/>
      <point x="324" y="-324" type="line"/>
      <point x="274" y="-174"/>
      <point x="258" y="0"/>
      <point x="258" y="180" type="curve" smooth="yes"/>
      <point x="258" y="639"/>
      <point x="453" y="1149"/>
      <point x="709" y="1489" type="curve"/>
      <point x="500" y="1489" type="line"/>
      <point x="215" y="1174"/>
      <point x="31" y="618"/>
      <point x="31" y="174" type="curve" smooth="yes"/>
      <point x="31" y="10"/>
      <point x="57" y="-205"/>
    </contour>
  </outline>
</glyph>
<glyph name="f" format="2">
  <advance width="555"/>
  <unicode hex="0066"/>
  <anchor x="-109" y="-492" name="bottom"/>
  <anchor x="598" y="1567" name="top"/>
  <anchor x="813" y="1567" name="topright"/>
  <outline>
    <contour>
      <point x="-109" y="-492" type="curve" smooth="yes"/>
      <point x="109" y="-492"/>
      <point x="182" y="-340"/>
      <point x="229" y="-111" type="curve" smooth="yes"/>
      <point x="449" y="909" type="line"/>
      <point x="608" y="909" type="line"/>
      <point x="649" y="1116" type="line"/>
      <point x="492" y="1116" type="line"/>
      <point x="512" y="1208" type="line" smooth="yes"/>
      <point x="532" y="1298"/>
      <point x="557" y="1358"/>
      <point x="621" y="1358" type="curve" smooth="yes"/>
      <point x="645" y="1358"/>
      <point x="678" y="1348"/>
      <point x="705" y="1333" type="curve"/>
      <point x="791" y="1522" type="line"/>
      <point x="725" y="1554"/>
      <point x="657" y="1567"/>
      <point x="590" y="1567" type="curve" smooth="yes"/>
      <point x="367" y="1567"/>
      <point x="305" y="1386"/>
      <point x="266" y="1206" type="curve" smooth="yes"/>
      <point x="244" y="1112" type="line"/>
      <point x="115" y="1040" type="line"/>
      <point x="88" y="909" type="line"/>
      <point x="203" y="909" type="line"/>
      <point x="-10" y="-90" type="line" smooth="yes"/>
      <point x="-33" y="-199"/>
      <point x="-51" y="-274"/>
      <point x="-143" y="-274" type="curve" smooth="yes"/>
      <point x="-170" y="-274"/>
      <point x="-215" y="-268"/>
      <point x="-240" y="-258" type="curve"/>
      <point x="-240" y="-473" type="line"/>
      <point x="-195" y="-489"/>
      <point x="-154" y="-492"/>
    </contour>
  </outline>
</glyph>
<glyph name="currency" format="2">
  <advance width="1006"/>
  <unicode hex="00A4"/>
  <outline>
    <contour>
      <point x="881" y="266" type="line"/>
      <point x="993" y="381" type="line"/>
      <point x="864" y="508" type="line"/>
      <point x="907" y="571"/>
      <point x="928" y="643"/>
      <point x="928" y="723" type="curve" smooth="yes"/>
      <point x="928" y="801"/>
      <point x="905" y="872"/>
      <point x="864" y="936" type="curve"/>
      <point x="995" y="1067" type="line"/>
      <point x="881" y="1180" type="line"/>
      <point x="748" y="1049" type="line"/>
      <point x="684" y="1092"/>
      <point x="612" y="1114"/>
      <point x="537" y="1114" type="curve" smooth="yes"/>
      <point x="463" y="1114"/>
      <point x="389" y="1094"/>
      <point x="326" y="1049" type="curve"/>
      <point x="195" y="1180" type="line"/>
      <point x="80" y="1065" type="line"/>
      <point x="211" y="934" type="line"/>
      <point x="168" y="866"/>
      <point x="147" y="797"/>
      <point x="147" y="723" type="curve" smooth="yes"/>
      <point x="147" y="647"/>
      <point x="168" y="575"/>
      <point x="211" y="512" type="curve"/>
      <point x="82" y="383" type="line"/>
      <point x="195" y="268" type="line"/>
      <point x="324" y="397" type="line"/>
      <point x="383" y="356"/>
      <point x="457" y="334"/>
      <point x="537" y="334" type="curve" smooth="yes"/>
      <point x="610" y="334"/>
      <point x="684" y="356"/>
      <point x="748" y="395" type="curve"/>
    </contour>
    <contour>
      <point x="537" y="496" type="curve" smooth="yes"/>
      <point x="412" y="496"/>
      <point x="309" y="598"/>
      <point x="309" y="723" type="curve" smooth="yes"/>
      <point x="309" y="848"/>
      <point x="414" y="952"/>
      <point x="537" y="952" type="curve" smooth="yes"/>
      <point x="662" y="952"/>
      <point x="768" y="846"/>
      <point x="768" y="723" type="curve" smooth="yes"/>
      <point x="768" y="600"/>
      <point x="666" y="496"/>
    </contour>
  </outline>
</glyph>
<glyph name="dieresis" format="2">
  <advance width="918"/>
  <unicode hex="00A8"/>
  <outline>
    <contour>
      <point x="760" y="1274" type="curve" smooth="yes"/>
      <point x="838" y="1274"/>
      <point x="903" y="1343"/>
      <point x="903" y="1444" type="curve" smooth="yes"/>
      <point x="903" y="1503"/>
      <point x="868" y="1536"/>
      <point x="809" y="1536" type="curve" smooth="yes"/>
      <point x="713" y="1536"/>
      <point x="659" y="1456"/>
      <point x="659" y="1370" type="curve" smooth="yes"/>
      <point x="659" y="1307"/>
      <point x="694" y="1274"/>
    </contour>
    <contour>
      <point x="412" y="1274" type="curve" smooth="yes"/>
      <point x="489" y="1274"/>
      <point x="553" y="1343"/>
      <point x="553" y="1444" type="curve" smooth="yes"/>
      <point x="553" y="1503"/>
      <point x="518" y="1536"/>
      <point x="461" y="1536" type="curve" smooth="yes"/>
      <point x="365" y="1536"/>
      <point x="311" y="1456"/>
      <point x="311" y="1370" type="curve" smooth="yes"/>
      <point x="311" y="1307"/>
      <point x="346" y="1274"/>
    </contour>
  </outline>
</glyph>
<glyph name="registered" format="2">
  <advance width="1692"/>
  <unicode hex="00AE"/>
  <outline>
    <contour>
      <point x="537" y="307" type="line"/>
      <point x="748" y="307" type="line"/>
      <point x="748" y="639" type="line"/>
      <point x="834" y="639" type="line"/>
      <point x="987" y="307" type="line"/>
      <point x="1217" y="307" type="line"/>
      <point x="1020" y="676" type="line"/>
      <point x="1120" y="723"/>
      <point x="1163" y="803"/>
      <point x="1163" y="918" type="curve" smooth="yes"/>
      <point x="1163" y="1096"/>
      <point x="1044" y="1184"/>
      <point x="815" y="1184" type="curve" smooth="yes"/>
      <point x="537" y="1184" type="line"/>
    </contour>
    <contour>
      <point x="748" y="788" type="line"/>
      <point x="748" y="1018" type="line"/>
      <point x="805" y="1018" type="line" smooth="yes"/>
      <point x="907" y="1018"/>
      <point x="948" y="987"/>
      <point x="948" y="909" type="curve" smooth="yes"/>
      <point x="948" y="823"/>
      <point x="893" y="788"/>
      <point x="803" y="788" type="curve" smooth="yes"/>
    </contour>
    <contour>
      <point x="838" y="-20" type="curve" smooth="yes"/>
      <point x="1278" y="-20"/>
      <point x="1606" y="289"/>
      <point x="1606" y="727" type="curve" smooth="yes"/>
      <point x="1606" y="1159"/>
      <point x="1288" y="1483"/>
      <point x="848" y="1483" type="curve" smooth="yes"/>
      <point x="422" y="1483"/>
      <point x="86" y="1178"/>
      <point x="86" y="729" type="curve" smooth="yes"/>
      <point x="86" y="305"/>
      <point x="385" y="-20"/>
    </contour>
    <contour>
      <point x="852" y="115" type="curve" smooth="yes"/>
      <point x="506" y="115"/>
      <point x="240" y="356"/>
      <point x="240" y="725" type="curve" smooth="yes"/>
      <point x="240" y="1077"/>
      <point x="481" y="1348"/>
      <point x="844" y="1348" type="curve" smooth="yes"/>
      <point x="1190" y="1348"/>
      <point x="1450" y="1100"/>
      <point x="1450" y="727" type="curve" smooth="yes"/>
      <point x="1450" y="367"/>
      <point x="1204" y="115"/>
    </contour>
  </outline>
</glyph>
<glyph name="guillemotright" format="2">
  <advance width="985"/>
  <unicode hex="00BB"/>
  <outline>
    <contour>
      <point x="580" y="92" type="line"/>
      <point x="932" y="539" type="line"/>
      <point x="936" y="563" type="line"/>
      <point x="725" y="1014" type="line"/>
      <point x="526" y="926" type="line"/>
      <point x="680" y="557" type="line"/>
      <point x="406" y="199" type="line"/>
    </contour>
    <contour>
      <point x="158" y="92" type="line"/>
      <point x="510" y="539" type="line"/>
      <point x="512" y="563" type="line"/>
      <point x="303" y="1014" type="line"/>
      <point x="106" y="926" type="line"/>
      <point x="258" y="557" type="line"/>
      <point x="-16" y="199" type="line"/>
    </contour>
  </outline>
</glyph>
<glyph name="AE" format="2">
  <advance width="1278"/>
  <unicode hex="00C6"/>
  <anchor x="524" y="0" name="bottom"/>
  <anchor x="834" y="1462" name="top"/>
  <outline>
    <contour>
      <point x="-133" y="0" type="line"/>
      <point x="143" y="0" type="line"/>
      <point x="315" y="373" type="line"/>
      <point x="549" y="373" type="line"/>
      <point x="469" y="0" type="line"/>
      <point x="1067" y="0" type="line"/>
      <point x="1114" y="225" type="line"/>
      <point x="770" y="225" type="line"/>
      <point x="860" y="647" type="line"/>
      <point x="1180" y="647" type="line"/>
      <point x="1227" y="870" type="line"/>
      <point x="907" y="870" type="line"/>
      <point x="985" y="1239" type="line"/>
      <point x="1329" y="1239" type="line"/>
      <point x="1376" y="1462" type="line"/>
      <point x="575" y="1462" type="line"/>
    </contour>
    <contour>
      <point x="420" y="600" type="line"/>
      <point x="711" y="1239" type="line"/>
      <point x="733" y="1239" type="line"/>
      <point x="598" y="600" type="line"/>
    </contour>
  </outline>
</glyph>
<glyph name="multiply" format="2">
  <advance width="969"/>
  <unicode hex="00D7"/>
  <outline>
    <contour>
      <point x="766" y="1137" type="line"/>
      <point x="502" y="877" type="line"/>
      <point x="240" y="1135" type="line"/>
      <point x="92" y="983" type="line"/>
      <point x="350" y="723" type="line"/>
      <point x="92" y="463" type="line"/>
      <point x="238" y="311" type="line"/>
      <point x="502" y="571" type="line"/>
      <point x="764" y="311" type="line"/>
      <point x="913" y="461" type="line"/>
      <point x="653" y="723" type="line"/>
      <point x="918" y="987" type="line"/>
    </contour>
  </outline>
</glyph>
<glyph name="divide" format="2">
  <advance width="969"/>
  <unicode hex="00F7"/>
  <outline>
    <contour>
      <point x="88" y="614" type="line"/>
      <point x="922" y="614" type="line"/>
      <point x="922" y="831" type="line"/>
      <point x="88" y="831" type="line"/>
    </contour>
    <contour>
      <point x="506" y="176" type="curve" smooth="yes"/>
      <point x="590" y="176"/>
      <point x="641" y="231"/>
      <point x="641" y="334" type="curve" smooth="yes"/>
      <point x="641" y="434"/>
      <point x="594" y="489"/>
      <point x="506" y="489" type="curve" smooth="yes"/>
      <point x="414" y="489"/>
      <point x="365" y="434"/>
      <point x="365" y="334" type="curve" smooth="yes"/>
      <point x="365" y="231"/>
      <point x="418" y="176"/>
    </contour>
    <contour>
      <point x="506" y="954" type="curve" smooth="yes"/>
      <point x="590" y="954"/>
      <point x="641" y="1010"/>
      <point x="641" y="1110" type="curve" smooth="yes"/>
      <point x="641" y="1212"/>
      <point x="594" y="1268"/>
      <point x="506" y="1268" type="curve" smooth="yes"/>
      <point x="414" y="1268"/>
      <point x="365" y="1212"/>
      <point x="365" y="1110" type="curve" smooth="yes"/>
      <point x="365" y="1010"/>
      <point x="418" y="954"/>
    </contour>
  </outline>
</glyph>
<glyph name="Tbar" format="2">
  <advance width="795"/>
  <unicode hex="0166"/>
  <anchor x="283" y="0" name="bottom"/>
  <anchor x="592" y="1462" name="top"/>
  <outline>
    <contour>
      <point x="143" y="0" type="line"/>
      <point x="399" y="0" type="line"/>
      <point x="532" y="631" type="line"/>
      <point x="702" y="631" type="line"/>
      <point x="741" y="825" type="line"/>
      <point x="573" y="825" type="line"/>
      <point x="659" y="1235" type="line"/>
      <point x="905" y="1235" type="line"/>
      <point x="952" y="1462" type="line"/>
      <point x="209" y="1462" type="line"/>
      <point x="162" y="1235" type="line"/>
      <point x="403" y="1235" type="line"/>
      <point x="317" y="825" type="line"/>
      <point x="154" y="825" type="line"/>
      <point x="113" y="631" type="line"/>
      <point x="276" y="631" type="line"/>
    </contour>
  </outline>
</glyph>
<glyph name="tbar" format="2">
  <advance width="596"/>
  <unicode hex="0167"/>
  <anchor x="184" y="0" name="bottom"/>
  <anchor x="469" y="1354" name="top"/>
  <outline>
    <contour>
      <point x="266" y="-20" type="curve" smooth="yes"/>
      <point x="328" y="-20"/>
      <point x="420" y="-8"/>
      <point x="481" y="23" type="curve"/>
      <point x="481" y="221" type="line"/>
      <point x="438" y="203"/>
      <point x="395" y="197"/>
      <point x="375" y="197" type="curve" smooth="yes"/>
      <point x="330" y="197"/>
      <point x="313" y="215"/>
      <point x="313" y="262" type="curve" smooth="yes"/>
      <point x="313" y="283"/>
      <point x="319" y="309"/>
      <point x="326" y="340" type="curve" smooth="yes"/>
      <point x="360" y="508" type="line"/>
      <point x="526" y="508" type="line"/>
      <point x="567" y="686" type="line"/>
      <point x="397" y="686" type="line"/>
      <point x="446" y="909" type="line"/>
      <point x="621" y="909" type="line"/>
      <point x="664" y="1116" type="line"/>
      <point x="489" y="1116" type="line"/>
      <point x="541" y="1354" type="line"/>
      <point x="367" y="1354" type="line"/>
      <point x="264" y="1110" type="line"/>
      <point x="127" y="1040" type="line"/>
      <point x="100" y="909" type="line"/>
      <point x="201" y="909" type="line"/>
      <point x="154" y="686" type="line"/>
      <point x="53" y="686" type="line"/>
      <point x="14" y="508" type="line"/>
      <point x="115" y="508" type="line"/>
      <point x="86" y="367" type="line" smooth="yes"/>
      <point x="72" y="297"/>
      <point x="66" y="248"/>
      <point x="66" y="203" type="curve" smooth="yes"/>
      <point x="66" y="72"/>
      <point x="121" y="-20"/>
    </contour>
  </outline>
</glyph>
<glyph name="uni0180" format="2">
  <advance width="928"/>
  <unicode hex="0180"/>
  <anchor x="350" y="0" name="bottom"/>
  <anchor x="680" y="1556" name="top"/>
  <outline>
    <contour>
      <point x="440" y="-20" type="curve" smooth="yes"/>
      <point x="733" y="-20"/>
      <point x="895" y="469"/>
      <point x="895" y="815" type="curve" smooth="yes"/>
      <point x="895" y="1018"/>
      <point x="811" y="1137"/>
      <point x="676" y="1137" type="curve" smooth="yes"/>
      <point x="580" y="1137"/>
      <point x="506" y="1094"/>
      <point x="438" y="995" type="curve"/>
      <point x="434" y="995" type="line"/>
      <point x="451" y="1042"/>
      <point x="459" y="1081"/>
      <point x="487" y="1212" type="curve"/>
      <point x="655" y="1212" type="line"/>
      <point x="694" y="1393" type="line"/>
      <point x="526" y="1393" type="line"/>
      <point x="561" y="1556" type="line"/>
      <point x="315" y="1556" type="line"/>
      <point x="281" y="1393" type="line"/>
      <point x="166" y="1393" type="line"/>
      <point x="129" y="1212" type="line"/>
      <point x="244" y="1212" type="line"/>
      <point x="-14" y="0" type="line"/>
      <point x="184" y="0" type="line"/>
      <point x="240" y="127" type="line"/>
      <point x="246" y="127" type="line"/>
      <point x="279" y="35"/>
      <point x="344" y="-20"/>
    </contour>
    <contour>
      <point x="406" y="188" type="curve" smooth="yes"/>
      <point x="346" y="188"/>
      <point x="317" y="236"/>
      <point x="317" y="330" type="curve" smooth="yes"/>
      <point x="317" y="537"/>
      <point x="414" y="922"/>
      <point x="563" y="922" type="curve" smooth="yes"/>
      <point x="614" y="922"/>
      <point x="639" y="877"/>
      <point x="639" y="776" type="curve" smooth="yes"/>
      <point x="639" y="588"/>
      <point x="541" y="188"/>
    </contour>
  </outline>
</glyph>
<glyph name="uni0183" format="2">
  <advance width="928"/>
  <unicode hex="0183"/>
  <anchor x="350" y="0" name="bottom"/>
  <anchor x="680" y="1556" name="top"/>
  <outline>
    <contour>
      <point x="440" y="-20" type="curve" smooth="yes"/>
      <point x="748" y="-20"/>
      <point x="895" y="504"/>
      <point x="895" y="815" type="curve" smooth="yes"/>
      <point x="895" y="1018"/>
      <point x="811" y="1137"/>
      <point x="676" y="1137" type="curve" smooth="yes"/>
      <point x="580" y="1137"/>
      <point x="506" y="1094"/>
      <point x="438" y="995" type="curve"/>
      <point x="434" y="995" type="line"/>
      <point x="453" y="1055"/>
      <point x="469" y="1114"/>
      <point x="475" y="1147" type="curve"/>
      <point x="524" y="1376" type="line"/>
      <point x="934" y="1376" type="line"/>
      <point x="973" y="1556" type="line"/>
      <point x="315" y="1556" type="line"/>
      <point x="-14" y="0" type="line"/>
      <point x="184" y="0" type="line"/>
      <point x="240" y="127" type="line"/>
      <point x="246" y="127" type="line"/>
      <point x="279" y="35"/>
      <point x="344" y="-20"/>
    </contour>
    <contour>
      <point x="406" y="188" type="curve" smooth="yes"/>
      <point x="346" y="188"/>
      <point x="317" y="236"/>
      <point x="317" y="330" type="curve" smooth="yes"/>
      <point x="317" y="520"/>
      <point x="403" y="922"/>
      <point x="563" y="922" type="curve" smooth="yes"/>
      <point x="614" y="922"/>
      <point x="639" y="877"/>
      <point x="639" y="776" type="curve" smooth="yes"/>
      <point x="639" y="582"/>
      <point x="539" y="188"/>
    </contour>
  </outline>
</glyph>
<glyph name="florin" format="2">
  <advance width="889"/>
  <unicode hex="0192"/>
  <anchor x="-23" y="-492" name="bottom"/>
  <anchor x="397" y="1483" name="top"/>
  <outline>
    <contour>
      <point x="51" y="-492" type="curve" smooth="yes"/>
      <point x="238" y="-492"/>
      <point x="322" y="-371"/>
      <point x="379" y="-98" type="curve" smooth="yes"/>
      <point x="571" y="797" type="line"/>
      <point x="739" y="797" type="line"/>
      <point x="782" y="1004" type="line"/>
      <point x="614" y="1004" type="line"/>
      <point x="639" y="1116" type="line" smooth="yes"/>
      <point x="662" y="1212"/>
      <point x="682" y="1272"/>
      <point x="743" y="1272" type="curve" smooth="yes"/>
      <point x="770" y="1272"/>
      <point x="797" y="1266"/>
      <point x="838" y="1245" type="curve"/>
      <point x="928" y="1434" type="line"/>
      <point x="854" y="1468"/>
      <point x="793" y="1483"/>
      <point x="725" y="1483" type="curve" smooth="yes"/>
      <point x="545" y="1483"/>
      <point x="461" y="1393"/>
      <point x="397" y="1126" type="curve" smooth="yes"/>
      <point x="367" y="997" type="line"/>
      <point x="227" y="926" type="line"/>
      <point x="201" y="797" type="line"/>
      <point x="326" y="797" type="line"/>
      <point x="131" y="-113" type="line" smooth="yes"/>
      <point x="106" y="-233"/>
      <point x="84" y="-281"/>
      <point x="23" y="-281" type="curve" smooth="yes"/>
      <point x="0" y="-281"/>
      <point x="-57" y="-270"/>
      <point x="-94" y="-254" type="curve"/>
      <point x="-94" y="-465" type="line"/>
      <point x="-59" y="-479"/>
      <point x="-14" y="-492"/>
    </contour>
  </outline>
</glyph>
<glyph name="uni0196" format="2">
  <advance width="557"/>
  <unicode hex="0196"/>
  <anchor x="164" y="0" name="bottom"/>
  <anchor x="473" y="1462" name="top"/>
  <outline>
    <contour>
      <point x="246" y="-20" type="curve" smooth="yes"/>
      <point x="303" y="-20"/>
      <point x="389" y="-2"/>
      <point x="449" y="31" type="curve"/>
      <point x="449" y="238" type="line"/>
      <point x="418" y="223"/>
      <point x="379" y="209"/>
      <point x="352" y="209" type="curve" smooth="yes"/>
      <point x="324" y="209"/>
      <point x="307" y="231"/>
      <point x="307" y="262" type="curve" smooth="yes"/>
      <point x="307" y="287"/>
      <point x="309" y="307"/>
      <point x="315" y="330" type="curve" smooth="yes"/>
      <point x="561" y="1462" type="line"/>
      <point x="305" y="1462" type="line"/>
      <point x="63" y="342" type="line" smooth="yes"/>
      <point x="51" y="289"/>
      <point x="43" y="227"/>
      <point x="43" y="184" type="curve" smooth="yes"/>
      <point x="43" y="55"/>
      <point x="115" y="-20"/>
    </contour>
  </outline>
</glyph>
<glyph name="Ohorn" format="2">
  <advance width="1128"/>
  <unicode hex="01A0"/>
  <anchor x="449" y="0" name="bottom"/>
  <anchor x="760" y="1462" name="top"/>
  <outline>
    <contour>
      <point x="446" y="-20" type="curve" smooth="yes"/>
      <point x="858" y="-20"/>
      <point x="1083" y="551"/>
      <point x="1083" y="1028" type="curve" smooth="yes"/>
      <point x="1083" y="1057"/>
      <point x="1083" y="1085"/>
      <point x="1081" y="1110" type="curve"/>
      <point x="1262" y="1188"/>
      <point x="1352" y="1337"/>
      <point x="1389" y="1536" type="curve"/>
      <point x="1380" y="1556" type="line"/>
      <point x="1155" y="1556" type="line"/>
      <point x="1139" y="1448"/>
      <point x="1100" y="1354"/>
      <point x="1030" y="1300" type="curve"/>
      <point x="975" y="1423"/>
      <point x="870" y="1485"/>
      <point x="715" y="1485" type="curve" smooth="yes"/>
      <point x="301" y="1485"/>
      <point x="72" y="911"/>
      <point x="72" y="444" type="curve" smooth="yes"/>
      <point x="72" y="125"/>
      <point x="193" y="-20"/>
    </contour>
    <contour>
      <point x="467" y="209" type="curve" smooth="yes"/>
      <point x="383" y="209"/>
      <point x="340" y="266"/>
      <point x="340" y="442" type="curve" smooth="yes"/>
      <point x="340" y="735"/>
      <point x="471" y="1257"/>
      <point x="694" y="1257" type="curve" smooth="yes"/>
      <point x="776" y="1257"/>
      <point x="819" y="1186"/>
      <point x="819" y="1034" type="curve" smooth="yes"/>
      <point x="819" y="766"/>
      <point x="696" y="209"/>
    </contour>
  </outline>
</glyph>
<glyph name="uni01B8" format="2">
  <advance width="874"/>
  <unicode hex="01B8"/>
  <anchor x="324" y="0" name="bottom"/>
  <anchor x="633" y="1462" name="top"/>
  <outline>
    <contour>
      <point x="403" y="-20" type="curve" smooth="yes"/>
      <point x="508" y="-20"/>
      <point x="641" y="6"/>
      <point x="733" y="51" type="curve"/>
      <point x="733" y="285" type="line"/>
      <point x="649" y="238"/>
      <point x="545" y="207"/>
      <point x="451" y="207" type="curve" smooth="yes"/>
      <point x="352" y="207"/>
      <point x="295" y="256"/>
      <point x="295" y="362" type="curve" smooth="yes"/>
      <point x="295" y="532"/>
      <point x="395" y="637"/>
      <point x="575" y="637" type="curve" smooth="yes"/>
      <point x="692" y="637" type="line"/>
      <point x="733" y="821" type="line"/>
      <point x="516" y="1239" type="line"/>
      <point x="901" y="1239" type="line"/>
      <point x="948" y="1462" type="line"/>
      <point x="272" y="1462" type="line"/>
      <point x="227" y="1255" type="line"/>
      <point x="444" y="842" type="line"/>
      <point x="178" y="799"/>
      <point x="25" y="614"/>
      <point x="25" y="332" type="curve" smooth="yes"/>
      <point x="25" y="94"/>
      <point x="158" y="-20"/>
    </contour>
  </outline>
</glyph>
<glyph name="uni01E5" format="2">
  <advance width="934"/>
  <unicode hex="01E5"/>
  <anchor x="248" y="-492" name="bottom"/>
  <anchor x="582" y="1085" name="top"/>
  <outline>
    <contour>
      <point x="231" y="-492" type="curve" smooth="yes"/>
      <point x="451" y="-492"/>
      <point x="596" y="-393"/>
      <point x="666" y="-178" type="curve"/>
      <point x="764" y="-178" type="line"/>
      <point x="795" y="-25" type="line"/>
      <point x="702" y="-25" type="line"/>
      <point x="944" y="1116" type="line"/>
      <point x="731" y="1116" type="line"/>
      <point x="686" y="979" type="line"/>
      <point x="682" y="979" type="line"/>
      <point x="653" y="1085"/>
      <point x="598" y="1137"/>
      <point x="492" y="1137" type="curve" smooth="yes"/>
      <point x="180" y="1137"/>
      <point x="53" y="672"/>
      <point x="53" y="371" type="curve" smooth="yes"/>
      <point x="53" y="172"/>
      <point x="139" y="63"/>
      <point x="274" y="63" type="curve" smooth="yes"/>
      <point x="367" y="63"/>
      <point x="438" y="104"/>
      <point x="508" y="205" type="curve"/>
      <point x="514" y="205" type="line"/>
      <point x="498" y="152"/>
      <point x="485" y="102"/>
      <point x="477" y="68" type="curve"/>
      <point x="457" y="-25" type="line"/>
      <point x="207" y="-25" type="line"/>
      <point x="174" y="-178" type="line"/>
      <point x="414" y="-178" type="line"/>
      <point x="381" y="-250"/>
      <point x="322" y="-299"/>
      <point x="227" y="-299" type="curve" smooth="yes"/>
      <point x="129" y="-299"/>
      <point x="8" y="-256"/>
      <point x="-53" y="-215" type="curve"/>
      <point x="-53" y="-424" type="line"/>
      <point x="14" y="-463"/>
      <point x="119" y="-492"/>
    </contour>
    <contour>
      <point x="387" y="281" type="curve" smooth="yes"/>
      <point x="336" y="281"/>
      <point x="311" y="328"/>
      <point x="311" y="426" type="curve" smooth="yes"/>
      <point x="311" y="586"/>
      <point x="377" y="922"/>
      <point x="526" y="922" type="curve" smooth="yes"/>
      <point x="582" y="922"/>
      <point x="614" y="877"/>
      <point x="614" y="803" type="curve" smooth="yes"/>
      <point x="614" y="627"/>
      <point x="543" y="281"/>
    </contour>
  </outline>
</glyph>
<glyph name="aringacute" format="2">
  <advance width="934"/>
  <unicode hex="01FB"/>
  <anchor x="352" y="0" name="bottom"/>
  <anchor x="768" y="1962" name="top"/>
  <outline>
    <contour>
      <point x="266" y="-20" type="curve" smooth="yes"/>
      <point x="362" y="-20"/>
      <point x="432" y="45"/>
      <point x="504" y="143" type="curve"/>
      <point x="510" y="143" type="line"/>
      <point x="510" y="0" type="line"/>
      <point x="709" y="0" type="line"/>
      <point x="946" y="1116" type="line"/>
      <point x="733" y="1116" type="line"/>
      <point x="684" y="983" type="line"/>
      <point x="678" y="983" type="line"/>
      <point x="641" y="1092"/>
      <point x="571" y="1137"/>
      <point x="485" y="1137" type="curve" smooth="yes"/>
      <point x="176" y="1137"/>
      <point x="39" y="596"/>
      <point x="39" y="299" type="curve" smooth="yes"/>
      <point x="39" y="98"/>
      <point x="121" y="-20"/>
    </contour>
    <contour>
      <point x="365" y="190" type="curve" smooth="yes"/>
      <point x="313" y="190"/>
      <point x="293" y="238"/>
      <point x="293" y="330" type="curve" smooth="yes"/>
      <point x="293" y="528"/>
      <point x="385" y="922"/>
      <point x="528" y="922" type="curve" smooth="yes"/>
      <point x="584" y="922"/>
      <point x="616" y="874"/>
      <point x="616" y="786" type="curve" smooth="yes"/>
      <point x="616" y="719"/>
      <point x="606" y="647"/>
      <point x="575" y="518" type="curve" smooth="yes"/>
      <point x="539" y="371"/>
      <point x="477" y="190"/>
    </contour>
    <contour>
      <point x="627" y="1200" type="curve" smooth="yes"/>
      <point x="770" y="1200"/>
      <point x="858" y="1294"/>
      <point x="858" y="1432" type="curve" smooth="yes"/>
      <point x="854" y="1567"/>
      <point x="760" y="1655"/>
      <point x="627" y="1655" type="curve" smooth="yes"/>
      <point x="485" y="1655"/>
      <point x="395" y="1565"/>
      <point x="395" y="1427" type="curve" smooth="yes"/>
      <point x="395" y="1288"/>
      <point x="483" y="1200"/>
    </contour>
    <contour>
      <point x="629" y="1327" type="curve" smooth="yes"/>
      <point x="559" y="1327"/>
      <point x="528" y="1362"/>
      <point x="528" y="1427" type="curve" smooth="yes"/>
      <point x="528" y="1487"/>
      <point x="565" y="1530"/>
      <point x="629" y="1530" type="curve" smooth="yes"/>
      <point x="692" y="1530"/>
      <point x="731" y="1487"/>
      <point x="731" y="1427" type="curve" smooth="yes"/>
      <point x="731" y="1366"/>
      <point x="688" y="1327"/>
    </contour>
    <contour>
      <point x="575" y="1720" type="line"/>
      <point x="770" y="1720" type="line"/>
      <point x="846" y="1772"/>
      <point x="991" y="1888"/>
      <point x="1053" y="1950" type="curve"/>
      <point x="1055" y="1962" type="line"/>
      <point x="758" y="1962" type="line"/>
      <point x="702" y="1876"/>
      <point x="637" y="1802"/>
      <point x="578" y="1735" type="curve"/>
    </contour>
  </outline>
</glyph>
<glyph name="uni0221" format="2">
  <advance width="1294"/>
  <unicode hex="0221"/>
  <anchor x="471" y="-285" name="bottom"/>
  <anchor x="862" y="1556" name="top"/>
  <outline>
    <contour>
      <point x="651" y="-285" type="line"/>
      <point x="696" y="-166"/>
      <point x="737" y="-66"/>
      <point x="770" y="12" type="curve"/>
      <point x="821" y="-10"/>
      <point x="881" y="-20"/>
      <point x="936" y="-20" type="curve" smooth="yes"/>
      <point x="1102" y="-20"/>
      <point x="1237" y="68"/>
      <point x="1237" y="246" type="curve" smooth="yes"/>
      <point x="1239" y="369"/>
      <point x="1167" y="459"/>
      <point x="1036" y="459" type="curve" smooth="yes"/>
      <point x="942" y="459"/>
      <point x="874" y="424"/>
      <point x="809" y="340" type="curve"/>
      <point x="805" y="358"/>
      <point x="805" y="381"/>
      <point x="805" y="406" type="curve" smooth="yes"/>
      <point x="805" y="432"/>
      <point x="809" y="467"/>
      <point x="817" y="510" type="curve" smooth="yes"/>
      <point x="1040" y="1556" type="line"/>
      <point x="795" y="1556" type="line"/>
      <point x="709" y="1149" type="line" smooth="yes"/>
      <point x="696" y="1098"/>
      <point x="686" y="1044"/>
      <point x="678" y="993" type="curve"/>
      <point x="672" y="993" type="line"/>
      <point x="641" y="1085"/>
      <point x="573" y="1137"/>
      <point x="471" y="1137" type="curve" smooth="yes"/>
      <point x="205" y="1137"/>
      <point x="39" y="653"/>
      <point x="39" y="303" type="curve" smooth="yes"/>
      <point x="39" y="100"/>
      <point x="135" y="-20"/>
      <point x="274" y="-20" type="curve" smooth="yes"/>
      <point x="424" y="-20"/>
      <point x="516" y="53"/>
      <point x="608" y="180" type="curve"/>
      <point x="614" y="180" type="line"/>
      <point x="625" y="143"/>
      <point x="641" y="111"/>
      <point x="662" y="86" type="curve"/>
      <point x="623" y="0"/>
      <point x="580" y="-109"/>
      <point x="532" y="-231" type="curve"/>
    </contour>
    <contour>
      <point x="367" y="188" type="curve" smooth="yes"/>
      <point x="317" y="188"/>
      <point x="293" y="238"/>
      <point x="293" y="334" type="curve" smooth="yes"/>
      <point x="293" y="510"/>
      <point x="383" y="922"/>
      <point x="528" y="922" type="curve" smooth="yes"/>
      <point x="586" y="922"/>
      <point x="614" y="877"/>
      <point x="614" y="786" type="curve" smooth="yes"/>
      <point x="614" y="598"/>
      <point x="518" y="188"/>
    </contour>
    <contour>
      <point x="961" y="125" type="curve" smooth="yes"/>
      <point x="918" y="125"/>
      <point x="879" y="145"/>
      <point x="852" y="186" type="curve"/>
      <point x="907" y="289"/>
      <point x="946" y="313"/>
      <point x="999" y="313" type="curve" smooth="yes"/>
      <point x="1040" y="313"/>
      <point x="1075" y="285"/>
      <point x="1075" y="236" type="curve" smooth="yes"/>
      <point x="1075" y="164"/>
      <point x="1024" y="127"/>
    </contour>
  </outline>
</glyph>
<glyph name="uni023C" format="2">
  <advance width="735"/>
  <unicode hex="023C"/>
  <anchor x="186" y="-297" name="bottom"/>
  <anchor x="551" y="1413" name="top"/>
  <outline>
    <contour>
      <point x="176" y="-297" type="line"/>
      <point x="303" y="-297" type="line"/>
      <point x="782" y="1413" type="line"/>
      <point x="655" y="1413" type="line"/>
    </contour>
    <component base="c"/>
  </outline>
</glyph>
<glyph name="uni0241" format="2">
  <advance width="823"/>
  <unicode hex="0241"/>
  <anchor x="297" y="0" name="bottom"/>
  <anchor x="606" y="1462" name="top"/>
  <outline>
    <contour>
      <point x="76" y="0" type="line"/>
      <point x="330" y="0" type="line"/>
      <point x="457" y="567" type="line"/>
      <point x="711" y="680"/>
      <point x="860" y="885"/>
      <point x="860" y="1137" type="curve" smooth="yes"/>
      <point x="860" y="1364"/>
      <point x="737" y="1483"/>
      <point x="541" y="1483" type="curve" smooth="yes"/>
      <point x="410" y="1483"/>
      <point x="307" y="1450"/>
      <point x="190" y="1362" type="curve"/>
      <point x="246" y="1167" type="line"/>
      <point x="334" y="1231"/>
      <point x="414" y="1260"/>
      <point x="475" y="1260" type="curve" smooth="yes"/>
      <point x="553" y="1260"/>
      <point x="596" y="1206"/>
      <point x="596" y="1110" type="curve" smooth="yes"/>
      <point x="596" y="940"/>
      <point x="489" y="778"/>
      <point x="221" y="670" type="curve"/>
    </contour>
  </outline>
</glyph>
<glyph name="uni0255" format="2">
  <advance width="827"/>
  <unicode hex="0255"/>
  <anchor x="299" y="0" name="bottom"/>
  <anchor x="528" y="1085" name="top"/>
  <outline>
    <contour>
      <point x="199" y="-260" type="line"/>
      <point x="233" y="-158"/>
      <point x="266" y="-72"/>
      <point x="295" y="0" type="curve"/>
      <point x="324" y="-14"/>
      <point x="354" y="-20"/>
      <point x="412" y="-20" type="curve" smooth="yes"/>
      <point x="633" y="-20"/>
      <point x="770" y="72"/>
      <point x="770" y="246" type="curve" smooth="yes"/>
      <point x="770" y="373"/>
      <point x="698" y="461"/>
      <point x="567" y="461" type="curve" smooth="yes"/>
      <point x="453" y="461"/>
      <point x="365" y="408"/>
      <point x="301" y="301" type="curve"/>
      <point x="297" y="322"/>
      <point x="297" y="342"/>
      <point x="297" y="377" type="curve" smooth="yes"/>
      <point x="297" y="555"/>
      <point x="373" y="922"/>
      <point x="561" y="922" type="curve" smooth="yes"/>
      <point x="606" y="922"/>
      <point x="657" y="901"/>
      <point x="696" y="870" type="curve"/>
      <point x="797" y="1067" type="line"/>
      <point x="729" y="1114"/>
      <point x="653" y="1137"/>
      <point x="559" y="1137" type="curve" smooth="yes"/>
      <point x="186" y="1137"/>
      <point x="43" y="664"/>
      <point x="43" y="403" type="curve" smooth="yes"/>
      <point x="43" y="195"/>
      <point x="104" y="109"/>
      <point x="178" y="55" type="curve"/>
      <point x="145" y="-20"/>
      <point x="113" y="-117"/>
      <point x="78" y="-217" type="curve"/>
    </contour>
    <contour>
      <point x="494" y="125" type="curve" smooth="yes"/>
      <point x="451" y="125"/>
      <point x="406" y="139"/>
      <point x="373" y="170" type="curve"/>
      <point x="428" y="283"/>
      <point x="473" y="315"/>
      <point x="532" y="315" type="curve" smooth="yes"/>
      <point x="573" y="315"/>
      <point x="608" y="287"/>
      <point x="608" y="236" type="curve" smooth="yes"/>
      <point x="608" y="166"/>
      <point x="559" y="127"/>
    </contour>
  </outline>
</glyph>
<glyph name="uni029B" format="2">
  <advance width="872"/>
  <unicode hex="029B"/>
  <anchor x="322" y="0" name="bottom"/>
  <anchor x="653" y="1565" name="top"/>
  <outline>
    <contour>
      <point x="365" y="-20" type="curve" smooth="yes"/>
      <point x="469" y="-20"/>
      <point x="586" y="-4"/>
      <point x="686" y="53" type="curve"/>
      <point x="805" y="618" type="line"/>
      <point x="457" y="618" type="line"/>
      <point x="416" y="424" type="line"/>
      <point x="539" y="424" type="line"/>
      <point x="489" y="186" type="line"/>
      <point x="465" y="180"/>
      <point x="436" y="176"/>
      <point x="414" y="176" type="curve" smooth="yes"/>
      <point x="336" y="176"/>
      <point x="297" y="238"/>
      <point x="297" y="365" type="curve" smooth="yes"/>
      <point x="297" y="629"/>
      <point x="399" y="928"/>
      <point x="608" y="928" type="curve" smooth="yes"/>
      <point x="655" y="928"/>
      <point x="713" y="913"/>
      <point x="766" y="874" type="curve"/>
      <point x="840" y="1028" type="line"/>
      <point x="889" y="1260" type="line" smooth="yes"/>
      <point x="905" y="1327"/>
      <point x="930" y="1352"/>
      <point x="973" y="1352" type="curve" smooth="yes"/>
      <point x="999" y="1352"/>
      <point x="1024" y="1343"/>
      <point x="1040" y="1333" type="curve"/>
      <point x="1040" y="1544" type="line"/>
      <point x="1010" y="1554"/>
      <point x="961" y="1565"/>
      <point x="909" y="1565" type="curve" smooth="yes"/>
      <point x="768" y="1565"/>
      <point x="702" y="1479"/>
      <point x="668" y="1317" type="curve" smooth="yes"/>
      <point x="627" y="1133" type="line"/>
      <point x="621" y="1135"/>
      <point x="604" y="1137"/>
      <point x="592" y="1137" type="curve" smooth="yes"/>
      <point x="236" y="1137"/>
      <point x="43" y="739"/>
      <point x="43" y="332" type="curve" smooth="yes"/>
      <point x="43" y="111"/>
      <point x="152" y="-20"/>
    </contour>
  </outline>
</glyph>
<glyph name="uni02A1" format="2">
  <advance width="653"/>
  <unicode hex="02A1"/>
  <anchor x="213" y="0" name="bottom"/>
  <anchor x="545" y="1567" name="top"/>
  <anchor x="891" y="1567" name="topright"/>
  <outline>
    <contour>
      <point x="10" y="0" type="line"/>
      <point x="254" y="0" type="line"/>
      <point x="309" y="268" type="line"/>
      <point x="477" y="268" type="line"/>
      <point x="516" y="451" type="line"/>
      <point x="346" y="451" type="line"/>
      <point x="381" y="616" type="line"/>
      <point x="659" y="842"/>
      <point x="768" y="1036"/>
      <point x="768" y="1241" type="curve" smooth="yes"/>
      <point x="768" y="1440"/>
      <point x="655" y="1567"/>
      <point x="438" y="1567" type="curve" smooth="yes"/>
      <point x="334" y="1567"/>
      <point x="205" y="1532"/>
      <point x="106" y="1448" type="curve"/>
      <point x="176" y="1266" type="line"/>
      <point x="250" y="1319"/>
      <point x="311" y="1350"/>
      <point x="393" y="1350" type="curve" smooth="yes"/>
      <point x="469" y="1350"/>
      <point x="518" y="1300"/>
      <point x="518" y="1217" type="curve" smooth="yes"/>
      <point x="518" y="1069"/>
      <point x="434" y="905"/>
      <point x="154" y="688" type="curve"/>
      <point x="102" y="451" type="line"/>
      <point x="-16" y="451" type="line"/>
      <point x="-57" y="268" type="line"/>
      <point x="68" y="268" type="line"/>
    </contour>
  </outline>
</glyph>
<glyph name="tcligcurl" format="2">
  <advance width="1360"/>
  <unicode hex="02A8"/>
  <anchor x="565" y="0" name="bottom"/>
  <anchor x="852" y="1354" name="top"/>
  <outline>
    <contour>
      <point x="268" y="-20" type="curve" smooth="yes"/>
      <point x="418" y="-20"/>
      <point x="549" y="37"/>
      <point x="666" y="109" type="curve"/>
      <point x="731" y="25"/>
      <point x="831" y="-20"/>
      <point x="981" y="-20" type="curve" smooth="yes"/>
      <point x="1167" y="-20"/>
      <point x="1305" y="72"/>
      <point x="1303" y="246" type="curve" smooth="yes"/>
      <point x="1305" y="379"/>
      <point x="1214" y="469"/>
      <point x="1079" y="469" type="curve" smooth="yes"/>
      <point x="991" y="469"/>
      <point x="907" y="432"/>
      <point x="831" y="393" type="curve"/>
      <point x="831" y="403"/>
      <point x="829" y="414"/>
      <point x="829" y="426" type="curve" smooth="yes"/>
      <point x="829" y="678"/>
      <point x="934" y="922"/>
      <point x="1094" y="922" type="curve" smooth="yes"/>
      <point x="1141" y="922"/>
      <point x="1192" y="901"/>
      <point x="1231" y="870" type="curve"/>
      <point x="1329" y="1067" type="line"/>
      <point x="1262" y="1114"/>
      <point x="1186" y="1137"/>
      <point x="1094" y="1137" type="curve" smooth="yes"/>
      <point x="731" y="1137"/>
      <point x="578" y="729"/>
      <point x="578" y="440" type="curve" smooth="yes"/>
      <point x="578" y="379"/>
      <point x="582" y="324"/>
      <point x="592" y="274" type="curve"/>
      <point x="514" y="227"/>
      <point x="444" y="197"/>
      <point x="373" y="197" type="curve" smooth="yes"/>
      <point x="330" y="197"/>
      <point x="313" y="215"/>
      <point x="313" y="260" type="curve" smooth="yes"/>
      <point x="313" y="281"/>
      <point x="319" y="309"/>
      <point x="326" y="340" type="curve" smooth="yes"/>
      <point x="446" y="909" type="line"/>
      <point x="621" y="909" type="line"/>
      <point x="664" y="1116" type="line"/>
      <point x="489" y="1116" type="line"/>
      <point x="541" y="1354" type="line"/>
      <point x="367" y="1354" type="line"/>
      <point x="264" y="1110" type="line"/>
      <point x="127" y="1040" type="line"/>
      <point x="100" y="909" type="line"/>
      <point x="201" y="909" type="line"/>
      <point x="86" y="371" type="line" smooth="yes"/>
      <point x="72" y="301"/>
      <point x="66" y="250"/>
      <point x="66" y="205" type="curve" smooth="yes"/>
      <point x="66" y="72"/>
      <point x="121" y="-20"/>
    </contour>
    <contour>
      <point x="1026" y="125" type="curve" smooth="yes"/>
      <point x="944" y="125"/>
      <point x="893" y="158"/>
      <point x="864" y="221" type="curve"/>
      <point x="934" y="264"/>
      <point x="1001" y="301"/>
      <point x="1065" y="301" type="curve" smooth="yes"/>
      <point x="1106" y="301"/>
      <point x="1141" y="272"/>
      <point x="1141" y="221" type="curve" smooth="yes"/>
      <point x="1141" y="164"/>
      <point x="1092" y="127"/>
    </contour>
  </outline>
</glyph>
<glyph name="uni02C0" format="2">
  <advance width="512"/>
  <unicode hex="02C0"/>
  <outline>
    <contour>
      <point x="217" y="1016" type="line"/>
      <point x="391" y="1016" type="line"/>
      <point x="408" y="1102" type="line"/>
      <point x="563" y="1143"/>
      <point x="643" y="1235"/>
      <point x="643" y="1362" type="curve" smooth="yes"/>
      <point x="643" y="1487"/>
      <point x="575" y="1569"/>
      <point x="418" y="1569" type="curve" smooth="yes"/>
      <point x="348" y="1569"/>
      <point x="276" y="1548"/>
      <point x="219" y="1509" type="curve"/>
      <point x="244" y="1370" type="line"/>
      <point x="283" y="1401"/>
      <point x="322" y="1415"/>
      <point x="360" y="1415" type="curve" smooth="yes"/>
      <point x="412" y="1415"/>
      <point x="434" y="1384"/>
      <point x="434" y="1335" type="curve" smooth="yes"/>
      <point x="434" y="1260"/>
      <point x="367" y="1223"/>
      <point x="256" y="1200" type="curve"/>
    </contour>
  </outline>
</glyph>
<glyph name="uni02F1" format="2">
  <advance width="543"/>
  <unicode hex="02F1"/>
  <outline>
    <contour>
      <point x="242" y="-473" type="line"/>
      <point x="264" y="-360" type="line"/>
      <point x="41" y="-227" type="line"/>
      <point x="319" y="-98" type="line"/>
      <point x="348" y="29" type="line"/>
      <point x="-76" y="-180" type="line"/>
      <point x="-92" y="-264" type="line"/>
    </contour>
  </outline>
</glyph>
<glyph name="lefttackbelowcomb" format="2">
  <unicode hex="0318"/>
  <anchor x="-100" y="0" name="_bottom"/>
  <anchor x="-164" y="-440" name="bottom"/>
  <outline>
    <contour>
      <point x="-178" y="-440" type="line"/>
      <point x="-70" y="-440" type="line"/>
      <point x="8" y="-63" type="line"/>
      <point x="-98" y="-63" type="line"/>
      <point x="-127" y="-199" type="line"/>
      <point x="-295" y="-199" type="line"/>
      <point x="-317" y="-305" type="line"/>
      <point x="-150" y="-305" type="line"/>
    </contour>
  </outline>
</glyph>
<glyph name="uptackbelowcomb" format="2">
  <unicode hex="031D"/>
  <anchor x="-137" y="0" name="_bottom"/>
  <anchor x="-201" y="-418" name="bottom"/>
  <outline>
    <contour>
      <point x="-369" y="-418" type="line"/>
      <point x="-41" y="-418" type="line"/>
      <point x="-18" y="-309" type="line"/>
      <point x="-125" y="-309" type="line"/>
      <point x="-78" y="-98" type="line"/>
      <point x="-193" y="-98" type="line"/>
      <point x="-238" y="-309" type="line"/>
      <point x="-344" y="-309" type="line"/>
    </contour>
  </outline>
</glyph>
<glyph name="squarebelowcomb" format="2">
  <unicode hex="033B"/>
  <anchor x="-111" y="0" name="_bottom"/>
  <anchor x="-178" y="-467" name="bottom"/>
  <outline>
    <contour>
      <point x="-522" y="-467" type="line"/>
      <point x="104" y="-467" type="line"/>
      <point x="190" y="-57" type="line"/>
      <point x="-436" y="-57" type="line"/>
    </contour>
    <contour>
      <point x="-401" y="-367" type="line"/>
      <point x="-358" y="-158" type="line"/>
      <point x="70" y="-158" type="line"/>
      <point x="25" y="-367" type="line"/>
    </contour>
  </outline>
</glyph>
<glyph name="seagullbelowcomb" format="2">
  <unicode hex="033C"/>
  <anchor x="-135" y="0" name="_bottom"/>
  <anchor x="-193" y="-354" name="bottom"/>
  <outline>
    <contour>
      <point x="-485" y="-354" type="curve"/>
      <point x="-395" y="-354" type="line"/>
      <point x="-377" y="-262"/>
      <point x="-338" y="-217"/>
      <point x="-285" y="-217" type="curve" smooth="yes"/>
      <point x="-221" y="-217"/>
      <point x="-213" y="-272"/>
      <point x="-229" y="-354" type="curve"/>
      <point x="-152" y="-354" type="line"/>
      <point x="-133" y="-262"/>
      <point x="-90" y="-217"/>
      <point x="-39" y="-217" type="curve" smooth="yes"/>
      <point x="31" y="-217"/>
      <point x="27" y="-274"/>
      <point x="14" y="-354" type="curve"/>
      <point x="104" y="-354" type="line"/>
      <point x="111" y="-324"/>
      <point x="113" y="-297"/>
      <point x="113" y="-272" type="curve" smooth="yes"/>
      <point x="113" y="-174"/>
      <point x="51" y="-127"/>
      <point x="-18" y="-127" type="curve" smooth="yes"/>
      <point x="-86" y="-127"/>
      <point x="-123" y="-150"/>
      <point x="-160" y="-205" type="curve"/>
      <point x="-174" y="-154"/>
      <point x="-223" y="-127"/>
      <point x="-281" y="-127" type="curve" smooth="yes"/>
      <point x="-379" y="-127"/>
      <point x="-453" y="-186"/>
    </contour>
  </outline>
</glyph>
<glyph name="leftanglebelowcomb" format="2">
  <unicode hex="0349"/>
  <anchor x="-90" y="0" name="_bottom"/>
  <anchor x="-164" y="-479" name="bottom"/>
  <outline>
    <contour>
      <point x="-180" y="-479" type="line"/>
      <point x="-72" y="-479" type="line"/>
      <point x="2" y="-129" type="line"/>
      <point x="-291" y="-129" type="line"/>
      <point x="-313" y="-238" type="line"/>
      <point x="-127" y="-238" type="line"/>
    </contour>
  </outline>
</glyph>
<glyph name="homotheticabovecomb" format="2">
  <unicode hex="034B"/>
  <anchor x="115" y="1085" name="_top"/>
  <anchor x="227" y="1870" name="top"/>
  <outline>
    <contour>
      <point x="-117" y="1380" type="curve"/>
      <point x="-8" y="1380" type="line"/>
      <point x="10" y="1450"/>
      <point x="41" y="1487"/>
      <point x="86" y="1487" type="curve" smooth="yes"/>
      <point x="162" y="1487"/>
      <point x="207" y="1382"/>
      <point x="319" y="1382" type="curve" smooth="yes"/>
      <point x="418" y="1382"/>
      <point x="489" y="1466"/>
      <point x="524" y="1645" type="curve"/>
      <point x="414" y="1645" type="line"/>
      <point x="393" y="1567"/>
      <point x="367" y="1538"/>
      <point x="322" y="1538" type="curve" smooth="yes"/>
      <point x="250" y="1538"/>
      <point x="205" y="1642"/>
      <point x="90" y="1642" type="curve" smooth="yes"/>
      <point x="-14" y="1642"/>
      <point x="-78" y="1569"/>
    </contour>
    <contour>
      <point x="123" y="1155" type="curve" smooth="yes"/>
      <point x="188" y="1155"/>
      <point x="238" y="1217"/>
      <point x="238" y="1296" type="curve" smooth="yes"/>
      <point x="238" y="1337"/>
      <point x="215" y="1360"/>
      <point x="172" y="1360" type="curve" smooth="yes"/>
      <point x="98" y="1360"/>
      <point x="51" y="1303"/>
      <point x="51" y="1223" type="curve" smooth="yes"/>
      <point x="51" y="1176"/>
      <point x="74" y="1155"/>
    </contour>
    <contour>
      <point x="238" y="1665" type="curve" smooth="yes"/>
      <point x="303" y="1665"/>
      <point x="350" y="1726"/>
      <point x="350" y="1806" type="curve" smooth="yes"/>
      <point x="350" y="1847"/>
      <point x="330" y="1870"/>
      <point x="287" y="1870" type="curve" smooth="yes"/>
      <point x="213" y="1870"/>
      <point x="166" y="1812"/>
      <point x="166" y="1733" type="curve" smooth="yes"/>
      <point x="166" y="1688"/>
      <point x="188" y="1665"/>
    </contour>
  </outline>
</glyph>
<glyph name="arrowheadrightheadupbelowcomb" format="2">
  <unicode hex="0356"/>
  <anchor x="-115" y="0" name="_bottom"/>
  <anchor x="-186" y="-492" name="bottom"/>
  <outline>
    <contour>
      <point x="-213" y="-477" type="line"/>
      <point x="-127" y="-477" type="line"/>
      <point x="-98" y="-418"/>
      <point x="-70" y="-330"/>
      <point x="-45" y="-250" type="curve"/>
      <point x="-25" y="-326"/>
      <point x="8" y="-418"/>
      <point x="35" y="-477" type="curve"/>
      <point x="123" y="-477" type="line"/>
      <point x="123" y="-455" type="line"/>
      <point x="84" y="-352"/>
      <point x="35" y="-201"/>
      <point x="16" y="-109" type="curve"/>
      <point x="-102" y="-109" type="line"/>
      <point x="-127" y="-203"/>
      <point x="-180" y="-375"/>
      <point x="-213" y="-455" type="curve"/>
    </contour>
    <contour>
      <point x="-473" y="-492" type="line"/>
      <point x="-457" y="-492" type="line"/>
      <point x="-391" y="-434"/>
      <point x="-291" y="-373"/>
      <point x="-221" y="-344" type="curve"/>
      <point x="-221" y="-231" type="line"/>
      <point x="-293" y="-199"/>
      <point x="-397" y="-125"/>
      <point x="-457" y="-82" type="curve"/>
      <point x="-473" y="-82" type="line"/>
      <point x="-473" y="-170" type="line"/>
      <point x="-430" y="-209"/>
      <point x="-385" y="-246"/>
      <point x="-328" y="-287" type="curve"/>
      <point x="-385" y="-326"/>
      <point x="-434" y="-362"/>
      <point x="-473" y="-401" type="curve"/>
    </contour>
  </outline>
</glyph>
<glyph name="arrowdoublerightbelowcomb" format="2">
  <unicode hex="0362"/>
  <anchor x="477" y="0" name="_bottom"/>
  <anchor x="416" y="-459" name="bottom"/>
  <outline>
    <contour>
      <point x="811" y="-459" type="line"/>
      <point x="1036" y="-260" type="line"/>
      <point x="811" y="-61" type="line"/>
      <point x="811" y="-197" type="line"/>
      <point x="-190" y="-197" type="line"/>
      <point x="-190" y="-324" type="line"/>
      <point x="811" y="-324" type="line"/>
    </contour>
  </outline>
</glyph>
<glyph name="archaicsampi" format="2">
  <advance width="1128"/>
  <unicode hex="0373"/>
  <anchor x="451" y="0" name="bottom"/>
  <anchor x="780" y="1556" name="top"/>
  <outline>
    <contour>
      <point x="313" y="0" type="line"/>
      <point x="559" y="0" type="line"/>
      <point x="842" y="1335" type="line"/>
      <point x="1083" y="1335" type="line"/>
      <point x="1130" y="1556" type="line"/>
      <point x="403" y="1556" type="line"/>
      <point x="356" y="1335" type="line"/>
      <point x="596" y="1335" type="line"/>
    </contour>
    <contour>
      <point x="117" y="905" type="line"/>
      <point x="356" y="905" type="line"/>
      <point x="496" y="1556" type="line"/>
      <point x="254" y="1556" type="line"/>
    </contour>
    <contour>
      <point x="899" y="905" type="line"/>
      <point x="1139" y="905" type="line"/>
      <point x="1278" y="1556" type="line"/>
      <point x="1036" y="1556" type="line"/>
    </contour>
  </outline>
</glyph>
<glyph name="tonos" format="2">
  <advance width="889"/>
  <unicode hex="0384"/>
  <anchor x="563" y="1085" name="_top"/>
  <outline>
    <contour>
      <point x="446" y="1241" type="line"/>
      <point x="600" y="1241" type="line"/>
      <point x="655" y="1313"/>
      <point x="766" y="1485"/>
      <point x="811" y="1561" type="curve"/>
      <point x="815" y="1581" type="line"/>
      <point x="588" y="1581" type="line"/>
      <point x="565" y="1516"/>
      <point x="487" y="1333"/>
      <point x="453" y="1268" type="curve"/>
    </contour>
  </outline>
</glyph>
<glyph name="omega" format="2">
  <advance width="1245"/>
  <unicode hex="03C9"/>
  <anchor x="510" y="0" name="bottom"/>
  <anchor x="739" y="1085" name="top"/>
  <outline>
    <contour>
      <point x="274" y="-20" type="curve" smooth="yes"/>
      <point x="387" y="-20"/>
      <point x="473" y="45"/>
      <point x="532" y="162" type="curve"/>
      <point x="535" y="76"/>
      <point x="584" y="-20"/>
      <point x="739" y="-20" type="curve" smooth="yes"/>
      <point x="1100" y="-20"/>
      <point x="1206" y="557"/>
      <point x="1206" y="909" type="curve" smooth="yes"/>
      <point x="1206" y="1006"/>
      <point x="1204" y="1065"/>
      <point x="1200" y="1116" type="curve"/>
      <point x="950" y="1116" type="line"/>
      <point x="958" y="1063"/>
      <point x="961" y="1004"/>
      <point x="961" y="911" type="curve" smooth="yes"/>
      <point x="961" y="702"/>
      <point x="897" y="207"/>
      <point x="750" y="207" type="curve" smooth="yes"/>
      <point x="713" y="207"/>
      <point x="696" y="238"/>
      <point x="696" y="301" type="curve" smooth="yes"/>
      <point x="696" y="344"/>
      <point x="707" y="406"/>
      <point x="723" y="492" type="curve" smooth="yes"/>
      <point x="780" y="758" type="line"/>
      <point x="541" y="758" type="line"/>
      <point x="483" y="492" type="line" smooth="yes"/>
      <point x="444" y="295"/>
      <point x="414" y="207"/>
      <point x="342" y="207" type="curve" smooth="yes"/>
      <point x="307" y="207"/>
      <point x="281" y="242"/>
      <point x="281" y="317" type="curve" smooth="yes"/>
      <point x="281" y="545"/>
      <point x="379" y="838"/>
      <point x="518" y="1116" type="curve"/>
      <point x="272" y="1116" type="line"/>
      <point x="139" y="872"/>
      <point x="33" y="551"/>
      <point x="33" y="311" type="curve" smooth="yes"/>
      <point x="33" y="104"/>
      <point x="106" y="-20"/>
    </contour>
  </outline>
</glyph>
<glyph name="uni03F1" format="2">
  <advance width="928"/>
  <unicode hex="03F1"/>
  <anchor x="246" y="-492" name="bottom"/>
  <anchor x="580" y="1085" name="top"/>
  <outline>
    <contour>
      <point x="375" y="-492" type="curve"/>
      <point x="598" y="-492" type="line"/>
      <point x="618" y="-455"/>
      <point x="635" y="-403"/>
      <point x="635" y="-358" type="curve" smooth="yes"/>
      <point x="635" y="-242"/>
      <point x="559" y="-190"/>
      <point x="420" y="-190" type="curve" smooth="yes"/>
      <point x="293" y="-190"/>
      <point x="248" y="-137"/>
      <point x="248" y="-43" type="curve" smooth="yes"/>
      <point x="248" y="-4"/>
      <point x="248" y="33"/>
      <point x="254" y="70" type="curve"/>
      <point x="258" y="70" type="line"/>
      <point x="293" y="29"/>
      <point x="350" y="-8"/>
      <point x="434" y="-8" type="curve" smooth="yes"/>
      <point x="760" y="-8"/>
      <point x="879" y="459"/>
      <point x="879" y="748" type="curve" smooth="yes"/>
      <point x="879" y="995"/>
      <point x="762" y="1133"/>
      <point x="551" y="1133" type="curve" smooth="yes"/>
      <point x="258" y="1133"/>
      <point x="117" y="829"/>
      <point x="47" y="465" type="curve" smooth="yes"/>
      <point x="18" y="317"/>
      <point x="-2" y="147"/>
      <point x="-2" y="-10" type="curve" smooth="yes"/>
      <point x="-2" y="-270"/>
      <point x="88" y="-395"/>
      <point x="313" y="-395" type="curve" smooth="yes"/>
      <point x="365" y="-395"/>
      <point x="387" y="-412"/>
      <point x="387" y="-444" type="curve" smooth="yes"/>
      <point x="387" y="-465"/>
      <point x="381" y="-481"/>
    </contour>
    <contour>
      <point x="401" y="195" type="curve" smooth="yes"/>
      <point x="348" y="195"/>
      <point x="299" y="236"/>
      <point x="281" y="272" type="curve"/>
      <point x="322" y="618"/>
      <point x="420" y="930"/>
      <point x="535" y="930" type="curve" smooth="yes"/>
      <point x="602" y="930"/>
      <point x="631" y="874"/>
      <point x="631" y="748" type="curve" smooth="yes"/>
      <point x="631" y="549"/>
      <point x="553" y="195"/>
    </contour>
  </outline>
</glyph>
<glyph name="afii10058" format="2">
  <advance width="1448"/>
  <unicode hex="0409"/>
  <anchor x="602" y="0" name="bottom"/>
  <anchor x="911" y="1462" name="top"/>
  <outline>
    <contour>
      <point x="6" y="-16" type="curve" smooth="yes"/>
      <point x="172" y="-16"/>
      <point x="250" y="61"/>
      <point x="342" y="287" type="curve" smooth="yes"/>
      <point x="401" y="428"/>
      <point x="537" y="874"/>
      <point x="635" y="1221" type="curve"/>
      <point x="801" y="1221" type="line"/>
      <point x="543" y="0" type="line"/>
      <point x="848" y="0" type="line" smooth="yes"/>
      <point x="1229" y="0"/>
      <point x="1378" y="281"/>
      <point x="1378" y="557" type="curve" smooth="yes"/>
      <point x="1378" y="780"/>
      <point x="1255" y="897"/>
      <point x="1024" y="897" type="curve" smooth="yes"/>
      <point x="985" y="897" type="line"/>
      <point x="1106" y="1462" type="line"/>
      <point x="461" y="1462" type="line"/>
      <point x="311" y="926"/>
      <point x="201" y="557"/>
      <point x="127" y="379" type="curve" smooth="yes"/>
      <point x="72" y="233"/>
      <point x="35" y="207"/>
      <point x="-23" y="207" type="curve" smooth="yes"/>
      <point x="-43" y="207"/>
      <point x="-74" y="213"/>
      <point x="-102" y="225" type="curve"/>
      <point x="-102" y="2" type="line"/>
      <point x="-72" y="-10"/>
      <point x="-31" y="-16"/>
    </contour>
    <contour>
      <point x="842" y="223" type="line"/>
      <point x="938" y="674" type="line"/>
      <point x="967" y="674" type="line" smooth="yes"/>
      <point x="1065" y="674"/>
      <point x="1114" y="635"/>
      <point x="1114" y="537" type="curve" smooth="yes"/>
      <point x="1114" y="362"/>
      <point x="1042" y="223"/>
      <point x="895" y="223" type="curve" smooth="yes"/>
    </contour>
  </outline>
</glyph>
<glyph name="afii10042" format="2">
  <advance width="1528"/>
  <unicode hex="0428"/>
  <anchor x="649" y="0" name="bottom"/>
  <anchor x="958" y="1462" name="top"/>
  <outline>
    <contour>
      <point x="-4" y="0" type="line"/>
      <point x="1288" y="0" type="line"/>
      <point x="1597" y="1462" type="line"/>
      <point x="1341" y="1462" type="line"/>
      <point x="1079" y="225" type="line"/>
      <point x="817" y="225" type="line"/>
      <point x="1081" y="1462" type="line"/>
      <point x="825" y="1462" type="line"/>
      <point x="561" y="225" type="line"/>
      <point x="297" y="225" type="line"/>
      <point x="561" y="1462" type="line"/>
      <point x="305" y="1462" type="line"/>
    </contour>
  </outline>
</glyph>
<glyph name="afii10045" format="2">
  <advance width="1393"/>
  <unicode hex="042B"/>
  <anchor x="582" y="0" name="bottom"/>
  <anchor x="891" y="1462" name="top"/>
  <outline>
    <contour>
      <point x="-4" y="0" type="line"/>
      <point x="315" y="0" type="line" smooth="yes"/>
      <point x="690" y="0"/>
      <point x="844" y="276"/>
      <point x="844" y="557" type="curve" smooth="yes"/>
      <point x="844" y="782"/>
      <point x="723" y="897"/>
      <point x="492" y="897" type="curve" smooth="yes"/>
      <point x="440" y="897" type="line"/>
      <point x="561" y="1462" type="line"/>
      <point x="305" y="1462" type="line"/>
    </contour>
    <contour>
      <point x="297" y="223" type="line"/>
      <point x="393" y="674" type="line"/>
      <point x="430" y="674" type="line" smooth="yes"/>
      <point x="528" y="674"/>
      <point x="580" y="633"/>
      <point x="580" y="537" type="curve" smooth="yes"/>
      <point x="580" y="362"/>
      <point x="506" y="223"/>
      <point x="360" y="223" type="curve" smooth="yes"/>
    </contour>
    <contour>
      <point x="889" y="0" type="line"/>
      <point x="1145" y="0" type="line"/>
      <point x="1456" y="1462" type="line"/>
      <point x="1200" y="1462" type="line"/>
    </contour>
  </outline>
</glyph>
<glyph name="afii10078" format="2">
  <advance width="1188"/>
  <unicode hex="043C"/>
  <anchor x="479" y="0" name="bottom"/>
  <anchor x="709" y="1085" name="top"/>
  <outline>
    <contour>
      <point x="-14" y="0" type="line"/>
      <point x="217" y="0" type="line"/>
      <point x="334" y="545" type="line" smooth="yes"/>
      <point x="346" y="614"/>
      <point x="356" y="676"/>
      <point x="369" y="743" type="curve"/>
      <point x="371" y="743" type="line"/>
      <point x="381" y="0" type="line"/>
      <point x="567" y="0" type="line"/>
      <point x="889" y="743" type="line"/>
      <point x="891" y="743" type="line"/>
      <point x="874" y="670"/>
      <point x="858" y="600"/>
      <point x="840" y="526" type="curve" smooth="yes"/>
      <point x="729" y="0" type="line"/>
      <point x="963" y="0" type="line"/>
      <point x="1198" y="1116" type="line"/>
      <point x="856" y="1116" type="line"/>
      <point x="557" y="401" type="line"/>
      <point x="553" y="401" type="line"/>
      <point x="553" y="1116" type="line"/>
      <point x="223" y="1116" type="line"/>
    </contour>
  </outline>
</glyph>
<glyph name="uni0467" format="2">
  <advance width="963"/>
  <unicode hex="0467"/>
  <anchor x="367" y="0" name="bottom"/>
  <anchor x="618" y="1116" name="top"/>
  <outline>
    <contour>
      <point x="-117" y="0" type="line"/>
      <point x="125" y="0" type="line"/>
      <point x="319" y="412" type="line"/>
      <point x="342" y="412" type="line"/>
      <point x="256" y="0" type="line"/>
      <point x="471" y="0" type="line"/>
      <point x="557" y="412" type="line"/>
      <point x="580" y="412" type="line"/>
      <point x="598" y="0" type="line"/>
      <point x="842" y="0" type="line"/>
      <point x="750" y="1116" type="line"/>
      <point x="451" y="1116" type="line"/>
    </contour>
    <contour>
      <point x="426" y="623" type="line"/>
      <point x="504" y="793"/>
      <point x="528" y="852"/>
      <point x="557" y="928" type="curve"/>
      <point x="555" y="889"/>
      <point x="557" y="817"/>
      <point x="565" y="623" type="curve"/>
    </contour>
  </outline>
</glyph>
<glyph name="uni0494" format="2">
  <advance width="979"/>
  <unicode hex="0494"/>
  <anchor x="266" y="-496" name="bottom"/>
  <anchor x="682" y="1462" name="top"/>
  <outline>
    <contour>
      <point x="293" y="-496" type="curve" smooth="yes"/>
      <point x="664" y="-496"/>
      <point x="860" y="-37"/>
      <point x="860" y="373" type="curve" smooth="yes"/>
      <point x="860" y="672"/>
      <point x="748" y="807"/>
      <point x="545" y="807" type="curve" smooth="yes"/>
      <point x="504" y="807"/>
      <point x="459" y="801"/>
      <point x="420" y="791" type="curve"/>
      <point x="516" y="1239" type="line"/>
      <point x="881" y="1239" type="line"/>
      <point x="928" y="1462" type="line"/>
      <point x="305" y="1462" type="line"/>
      <point x="-4" y="0" type="line"/>
      <point x="252" y="0" type="line"/>
      <point x="371" y="569" type="line"/>
      <point x="395" y="578"/>
      <point x="424" y="582"/>
      <point x="453" y="582" type="curve" smooth="yes"/>
      <point x="551" y="582"/>
      <point x="594" y="512"/>
      <point x="594" y="381" type="curve" smooth="yes"/>
      <point x="594" y="98"/>
      <point x="498" y="-270"/>
      <point x="285" y="-270" type="curve" smooth="yes"/>
      <point x="238" y="-270"/>
      <point x="170" y="-254"/>
      <point x="119" y="-227" type="curve"/>
      <point x="119" y="-461" type="line"/>
      <point x="172" y="-485"/>
      <point x="231" y="-496"/>
    </contour>
  </outline>
</glyph>
<glyph name="uni0495" format="2">
  <advance width="858"/>
  <unicode hex="0495"/>
  <anchor x="211" y="-492" name="bottom"/>
  <anchor x="545" y="1085" name="top"/>
  <outline>
    <contour>
      <point x="266" y="-492" type="curve" smooth="yes"/>
      <point x="561" y="-492"/>
      <point x="729" y="-88"/>
      <point x="729" y="268" type="curve" smooth="yes"/>
      <point x="729" y="508"/>
      <point x="629" y="627"/>
      <point x="451" y="627" type="curve" smooth="yes"/>
      <point x="420" y="627"/>
      <point x="393" y="623"/>
      <point x="365" y="614" type="curve"/>
      <point x="426" y="905" type="line"/>
      <point x="723" y="905" type="line"/>
      <point x="768" y="1116" type="line"/>
      <point x="225" y="1116" type="line"/>
      <point x="-14" y="0" type="line"/>
      <point x="233" y="0" type="line"/>
      <point x="319" y="403" type="line"/>
      <point x="334" y="412"/>
      <point x="354" y="418"/>
      <point x="377" y="418" type="curve" smooth="yes"/>
      <point x="444" y="418"/>
      <point x="477" y="369"/>
      <point x="477" y="260" type="curve" smooth="yes"/>
      <point x="477" y="31"/>
      <point x="395" y="-281"/>
      <point x="217" y="-281" type="curve" smooth="yes"/>
      <point x="176" y="-281"/>
      <point x="117" y="-264"/>
      <point x="80" y="-238" type="curve"/>
      <point x="80" y="-453" type="line"/>
      <point x="127" y="-477"/>
      <point x="197" y="-492"/>
    </contour>
  </outline>
</glyph>
<glyph name="uni049A" format="2">
  <advance width="1022"/>
  <unicode hex="049A"/>
  <anchor x="307" y="-424" name="bottom"/>
  <anchor x="707" y="1462" name="top"/>
  <outline>
    <contour>
      <point x="545" y="-424" type="line"/>
      <point x="795" y="-424" type="line"/>
      <point x="934" y="225" type="line"/>
      <point x="788" y="225" type="line"/>
      <point x="657" y="750" type="line"/>
      <point x="1141" y="1462" type="line"/>
      <point x="862" y="1462" type="line"/>
      <point x="412" y="762" type="line"/>
      <point x="561" y="1462" type="line"/>
      <point x="305" y="1462" type="line"/>
      <point x="-4" y="0" type="line"/>
      <point x="252" y="0" type="line"/>
      <point x="408" y="745" type="line"/>
      <point x="567" y="0" type="line"/>
      <point x="635" y="0" type="line"/>
    </contour>
  </outline>
</glyph>
<glyph name="uni04B0" format="2">
  <advance width="866"/>
  <unicode hex="04B0"/>
  <anchor x="319" y="0" name="bottom"/>
  <anchor x="629" y="1462" name="top"/>
  <outline>
    <contour>
      <point x="182" y="0" type="line"/>
      <point x="438" y="0" type="line"/>
      <point x="504" y="309" type="line"/>
      <point x="705" y="309" type="line"/>
      <point x="750" y="526" type="line"/>
      <point x="549" y="526" type="line"/>
      <point x="557" y="565" type="line"/>
      <point x="1055" y="1462" type="line"/>
      <point x="780" y="1462" type="line"/>
      <point x="494" y="893" type="line"/>
      <point x="449" y="1462" type="line"/>
      <point x="182" y="1462" type="line"/>
      <point x="301" y="561" type="line"/>
      <point x="293" y="526" type="line"/>
      <point x="96" y="526" type="line"/>
      <point x="49" y="309" type="line"/>
      <point x="248" y="309" type="line"/>
    </contour>
  </outline>
</glyph>
<glyph name="uni04B1" format="2">
  <advance width="813"/>
  <unicode hex="04B1"/>
  <anchor x="188" y="-492" name="bottom"/>
  <anchor x="522" y="1085" name="top"/>
  <outline>
    <contour>
      <point x="59" y="-492" type="line"/>
      <point x="305" y="-492" type="line"/>
      <point x="367" y="-201" type="line"/>
      <point x="557" y="-201" type="line"/>
      <point x="600" y="0" type="line"/>
      <point x="410" y="0" type="line"/>
      <point x="926" y="1116" type="line"/>
      <point x="668" y="1116" type="line"/>
      <point x="434" y="555" type="line" smooth="yes"/>
      <point x="399" y="475"/>
      <point x="381" y="416"/>
      <point x="367" y="365" type="curve"/>
      <point x="358" y="365" type="line"/>
      <point x="362" y="451"/>
      <point x="362" y="524"/>
      <point x="365" y="590" type="curve"/>
      <point x="369" y="1116" type="line"/>
      <point x="123" y="1116" type="line"/>
      <point x="162" y="0" type="line"/>
      <point x="-29" y="0" type="line"/>
      <point x="-70" y="-201" type="line"/>
      <point x="121" y="-201" type="line"/>
    </contour>
  </outline>
</glyph>
<glyph name="uni04B9" format="2">
  <advance width="999"/>
  <unicode hex="04B9"/>
  <anchor x="385" y="0" name="bottom"/>
  <anchor x="614" y="1085" name="top"/>
  <outline>
    <contour>
      <point x="530" y="0" type="line"/>
      <point x="776" y="0" type="line"/>
      <point x="1014" y="1116" type="line"/>
      <point x="768" y="1116" type="line"/>
      <point x="672" y="668" type="line" smooth="yes"/>
      <point x="633" y="606"/>
      <point x="592" y="575"/>
      <point x="543" y="563" type="curve"/>
      <point x="600" y="831" type="line"/>
      <point x="487" y="831" type="line"/>
      <point x="426" y="551" type="line"/>
      <point x="379" y="557"/>
      <point x="358" y="586"/>
      <point x="358" y="635" type="curve" smooth="yes"/>
      <point x="358" y="662"/>
      <point x="365" y="709"/>
      <point x="371" y="743" type="curve" smooth="yes"/>
      <point x="451" y="1116" type="line"/>
      <point x="207" y="1116" type="line"/>
      <point x="129" y="750" type="line" smooth="yes"/>
      <point x="117" y="696"/>
      <point x="106" y="635"/>
      <point x="106" y="588" type="curve" smooth="yes"/>
      <point x="106" y="432"/>
      <point x="207" y="352"/>
      <point x="385" y="348" type="curve"/>
      <point x="338" y="131" type="line"/>
      <point x="451" y="131" type="line"/>
      <point x="502" y="371" type="line"/>
      <point x="551" y="385"/>
      <point x="594" y="412"/>
      <point x="627" y="449" type="curve"/>
      <point x="631" y="449" type="line"/>
      <point x="616" y="406"/>
      <point x="608" y="371"/>
      <point x="598" y="319" type="curve" smooth="yes"/>
    </contour>
  </outline>
</glyph>
<glyph name="uni04C7" format="2">
  <advance width="1075"/>
  <unicode hex="04C7"/>
  <anchor x="319" y="-475" name="bottom"/>
  <anchor x="731" y="1462" name="top"/>
  <outline>
    <contour>
      <point x="379" y="-475" type="curve" smooth="yes"/>
      <point x="641" y="-475"/>
      <point x="766" y="-301"/>
      <point x="831" y="12" type="curve" smooth="yes"/>
      <point x="1141" y="1462" type="line"/>
      <point x="885" y="1462" type="line"/>
      <point x="760" y="877" type="line"/>
      <point x="436" y="877" type="line"/>
      <point x="561" y="1462" type="line"/>
      <point x="305" y="1462" type="line"/>
      <point x="-4" y="0" type="line"/>
      <point x="252" y="0" type="line"/>
      <point x="389" y="649" type="line"/>
      <point x="711" y="649" type="line"/>
      <point x="573" y="6" type="line" smooth="yes"/>
      <point x="539" y="-170"/>
      <point x="487" y="-254"/>
      <point x="371" y="-254" type="curve" smooth="yes"/>
      <point x="334" y="-254"/>
      <point x="264" y="-244"/>
      <point x="223" y="-221" type="curve"/>
      <point x="223" y="-451" type="line"/>
      <point x="264" y="-469"/>
      <point x="315" y="-475"/>
    </contour>
  </outline>
</glyph>
<glyph name="uni04C8" format="2">
  <advance width="934"/>
  <unicode hex="04C8"/>
  <anchor x="248" y="-496" name="bottom"/>
  <anchor x="582" y="1085" name="top"/>
  <outline>
    <contour>
      <point x="317" y="-496" type="curve" smooth="yes"/>
      <point x="551" y="-496"/>
      <point x="641" y="-322"/>
      <point x="694" y="-63" type="curve" smooth="yes"/>
      <point x="944" y="1116" type="line"/>
      <point x="698" y="1116" type="line"/>
      <point x="606" y="680" type="line"/>
      <point x="377" y="680" type="line"/>
      <point x="471" y="1116" type="line"/>
      <point x="225" y="1116" type="line"/>
      <point x="-14" y="0" type="line"/>
      <point x="233" y="0" type="line"/>
      <point x="332" y="469" type="line"/>
      <point x="563" y="469" type="line"/>
      <point x="459" y="-16" type="line" smooth="yes"/>
      <point x="420" y="-211"/>
      <point x="385" y="-279"/>
      <point x="287" y="-279" type="curve" smooth="yes"/>
      <point x="248" y="-279"/>
      <point x="197" y="-266"/>
      <point x="166" y="-246" type="curve"/>
      <point x="166" y="-467" type="line"/>
      <point x="211" y="-485"/>
      <point x="262" y="-496"/>
    </contour>
  </outline>
</glyph>
<glyph name="uni04E0" format="2">
  <advance width="903"/>
  <unicode hex="04E0"/>
  <anchor x="336" y="0" name="bottom"/>
  <anchor x="645" y="1462" name="top"/>
  <outline>
    <contour>
      <point x="279" y="-20" type="curve" smooth="yes"/>
      <point x="594" y="-20"/>
      <point x="801" y="199"/>
      <point x="801" y="492" type="curve" smooth="yes"/>
      <point x="801" y="690"/>
      <point x="715" y="809"/>
      <point x="524" y="842" type="curve"/>
      <point x="907" y="1276" type="line"/>
      <point x="946" y="1462" type="line"/>
      <point x="262" y="1462" type="line"/>
      <point x="215" y="1239" type="line"/>
      <point x="582" y="1239" type="line"/>
      <point x="252" y="848" type="line"/>
      <point x="215" y="672" type="line"/>
      <point x="332" y="672" type="line" smooth="yes"/>
      <point x="455" y="672"/>
      <point x="535" y="627"/>
      <point x="535" y="500" type="curve" smooth="yes"/>
      <point x="535" y="326"/>
      <point x="444" y="207"/>
      <point x="262" y="207" type="curve" smooth="yes"/>
      <point x="160" y="207"/>
      <point x="41" y="244"/>
      <point x="-31" y="305" type="curve"/>
      <point x="-31" y="47" type="line"/>
      <point x="59" y="-2"/>
      <point x="162" y="-20"/>
    </contour>
  </outline>
</glyph>
<glyph name="uni04FF" format="2">
  <advance width="829"/>
  <unicode hex="04FF"/>
  <anchor x="299" y="0" name="bottom"/>
  <anchor x="528" y="1085" name="top"/>
  <outline>
    <contour>
      <point x="-100" y="0" type="line"/>
      <point x="164" y="0" type="line"/>
      <point x="369" y="354" type="line"/>
      <point x="424" y="0" type="line"/>
      <point x="694" y="0" type="line"/>
      <point x="592" y="467" type="line"/>
      <point x="745" y="467" type="line"/>
      <point x="788" y="668" type="line"/>
      <point x="633" y="668" type="line"/>
      <point x="920" y="1116" type="line"/>
      <point x="649" y="1116" type="line"/>
      <point x="463" y="786" type="line"/>
      <point x="414" y="1116" type="line"/>
      <point x="145" y="1116" type="line"/>
      <point x="242" y="668" type="line"/>
      <point x="88" y="668" type="line"/>
      <point x="45" y="467" type="line"/>
      <point x="195" y="467" type="line"/>
    </contour>
  </outline>
</glyph>
<glyph name="uni050D" format="2">
  <advance width="909"/>
  <unicode hex="050D"/>
  <anchor x="340" y="0" name="bottom"/>
  <anchor x="569" y="1085" name="top"/>
  <outline>
    <contour>
      <point x="387" y="-20" type="curve" smooth="yes"/>
      <point x="645" y="-20"/>
      <point x="766" y="190"/>
      <point x="834" y="506" type="curve" smooth="yes"/>
      <point x="864" y="637" type="line"/>
      <point x="469" y="637" type="line"/>
      <point x="426" y="444" type="line"/>
      <point x="582" y="444" type="line"/>
      <point x="541" y="264"/>
      <point x="487" y="184"/>
      <point x="397" y="184" type="curve" smooth="yes"/>
      <point x="322" y="184"/>
      <point x="285" y="240"/>
      <point x="285" y="362" type="curve" smooth="yes"/>
      <point x="285" y="594"/>
      <point x="391" y="926"/>
      <point x="600" y="926" type="curve" smooth="yes"/>
      <point x="666" y="926"/>
      <point x="725" y="901"/>
      <point x="772" y="862" type="curve"/>
      <point x="874" y="1059" type="line"/>
      <point x="801" y="1106"/>
      <point x="698" y="1137"/>
      <point x="594" y="1137" type="curve" smooth="yes"/>
      <point x="242" y="1137"/>
      <point x="41" y="756"/>
      <point x="41" y="362" type="curve" smooth="yes"/>
      <point x="41" y="123"/>
      <point x="147" y="-20"/>
    </contour>
  </outline>
</glyph>
<glyph name="uni0521" format="2">
  <advance width="1335"/>
  <unicode hex="0521"/>
  <anchor x="449" y="-492" name="bottom"/>
  <anchor x="782" y="1085" name="top"/>
  <outline>
    <contour>
      <point x="750" y="-492" type="curve" smooth="yes"/>
      <point x="1042" y="-492"/>
      <point x="1210" y="-88"/>
      <point x="1210" y="268" type="curve" smooth="yes"/>
      <point x="1210" y="508"/>
      <point x="1110" y="627"/>
      <point x="932" y="627" type="curve" smooth="yes"/>
      <point x="903" y="627"/>
      <point x="874" y="623"/>
      <point x="846" y="614" type="curve"/>
      <point x="948" y="1110" type="line"/>
      <point x="852" y="1122"/>
      <point x="782" y="1130"/>
      <point x="678" y="1130" type="curve" smooth="yes"/>
      <point x="373" y="1130"/>
      <point x="246" y="958"/>
      <point x="176" y="602" type="curve" smooth="yes"/>
      <point x="113" y="283"/>
      <point x="55" y="201"/>
      <point x="-23" y="201" type="curve" smooth="yes"/>
      <point x="-47" y="201"/>
      <point x="-72" y="205"/>
      <point x="-92" y="221" type="curve"/>
      <point x="-92" y="8" type="line"/>
      <point x="-59" y="-8"/>
      <point x="-35" y="-16"/>
      <point x="12" y="-16" type="curve" smooth="yes"/>
      <point x="244" y="-16"/>
      <point x="328" y="219"/>
      <point x="391" y="508" type="curve" smooth="yes"/>
      <point x="453" y="797"/>
      <point x="502" y="920"/>
      <point x="612" y="920" type="curve" smooth="yes"/>
      <point x="629" y="920"/>
      <point x="651" y="918"/>
      <point x="662" y="913" type="curve"/>
      <point x="469" y="0" type="line"/>
      <point x="715" y="0" type="line"/>
      <point x="801" y="403" type="line"/>
      <point x="815" y="412"/>
      <point x="838" y="418"/>
      <point x="858" y="418" type="curve" smooth="yes"/>
      <point x="926" y="418"/>
      <point x="958" y="369"/>
      <point x="958" y="260" type="curve" smooth="yes"/>
      <point x="958" y="31"/>
      <point x="877" y="-281"/>
      <point x="698" y="-281" type="curve" smooth="yes"/>
      <point x="657" y="-281"/>
      <point x="598" y="-264"/>
      <point x="561" y="-238" type="curve"/>
      <point x="561" y="-453" type="line"/>
      <point x="608" y="-477"/>
      <point x="678" y="-492"/>
    </contour>
  </outline>
</glyph>
<glyph name="uni0522" format="2">
  <advance width="1552"/>
  <unicode hex="0522"/>
  <anchor x="557" y="-496" name="bottom"/>
  <anchor x="971" y="1462" name="top"/>
  <outline>
    <contour>
      <point x="866" y="-496" type="curve" smooth="yes"/>
      <point x="1235" y="-496"/>
      <point x="1430" y="-37"/>
      <point x="1430" y="373" type="curve" smooth="yes"/>
      <point x="1430" y="672"/>
      <point x="1317" y="807"/>
      <point x="1116" y="807" type="curve" smooth="yes"/>
      <point x="1075" y="807"/>
      <point x="1030" y="801"/>
      <point x="993" y="791" type="curve"/>
      <point x="1135" y="1462" type="line"/>
      <point x="879" y="1462" type="line"/>
      <point x="754" y="877" type="line"/>
      <point x="436" y="877" type="line"/>
      <point x="561" y="1462" type="line"/>
      <point x="305" y="1462" type="line"/>
      <point x="-4" y="0" type="line"/>
      <point x="252" y="0" type="line"/>
      <point x="389" y="649" type="line"/>
      <point x="707" y="649" type="line"/>
      <point x="569" y="0" type="line"/>
      <point x="825" y="0" type="line"/>
      <point x="946" y="569" type="line"/>
      <point x="969" y="578"/>
      <point x="997" y="582"/>
      <point x="1024" y="582" type="curve" smooth="yes"/>
      <point x="1120" y="582"/>
      <point x="1165" y="512"/>
      <point x="1165" y="381" type="curve" smooth="yes"/>
      <point x="1165" y="98"/>
      <point x="1067" y="-270"/>
      <point x="858" y="-270" type="curve" smooth="yes"/>
      <point x="811" y="-270"/>
      <point x="743" y="-254"/>
      <point x="692" y="-227" type="curve"/>
      <point x="692" y="-461" type="line"/>
      <point x="745" y="-485"/>
      <point x="805" y="-496"/>
    </contour>
  </outline>
</glyph>
<glyph name="uni0523" format="2">
  <advance width="1331"/>
  <unicode hex="0523"/>
  <anchor x="446" y="-492" name="bottom"/>
  <anchor x="780" y="1085" name="top"/>
  <outline>
    <contour>
      <point x="739" y="-492" type="curve" smooth="yes"/>
      <point x="1034" y="-492"/>
      <point x="1202" y="-88"/>
      <point x="1202" y="268" type="curve" smooth="yes"/>
      <point x="1202" y="508"/>
      <point x="1102" y="627"/>
      <point x="924" y="627" type="curve" smooth="yes"/>
      <point x="895" y="627"/>
      <point x="868" y="623"/>
      <point x="838" y="614" type="curve"/>
      <point x="944" y="1116" type="line"/>
      <point x="698" y="1116" type="line"/>
      <point x="606" y="680" type="line"/>
      <point x="377" y="680" type="line"/>
      <point x="471" y="1116" type="line"/>
      <point x="225" y="1116" type="line"/>
      <point x="-14" y="0" type="line"/>
      <point x="233" y="0" type="line"/>
      <point x="332" y="469" type="line"/>
      <point x="563" y="469" type="line"/>
      <point x="463" y="0" type="line"/>
      <point x="707" y="0" type="line"/>
      <point x="793" y="403" type="line"/>
      <point x="809" y="412"/>
      <point x="829" y="418"/>
      <point x="850" y="418" type="curve" smooth="yes"/>
      <point x="918" y="418"/>
      <point x="950" y="369"/>
      <point x="950" y="260" type="curve" smooth="yes"/>
      <point x="950" y="31"/>
      <point x="868" y="-281"/>
      <point x="690" y="-281" type="curve" smooth="yes"/>
      <point x="649" y="-281"/>
      <point x="590" y="-264"/>
      <point x="553" y="-238" type="curve"/>
      <point x="553" y="-453" type="line"/>
      <point x="600" y="-477"/>
      <point x="670" y="-492"/>
    </contour>
  </outline>
</glyph>
<glyph name="uni1D04" format="2">
  <advance width="750"/>
  <unicode hex="1D04"/>
  <anchor x="262" y="0" name="bottom"/>
  <anchor x="492" y="1085" name="top"/>
  <outline>
    <contour>
      <point x="340" y="-16" type="curve" smooth="yes"/>
      <point x="424" y="-16"/>
      <point x="522" y="0"/>
      <point x="602" y="39" type="curve"/>
      <point x="602" y="252" type="line"/>
      <point x="539" y="219"/>
      <point x="471" y="197"/>
      <point x="408" y="197" type="curve" smooth="yes"/>
      <point x="344" y="197"/>
      <point x="309" y="240"/>
      <point x="309" y="358" type="curve" smooth="yes"/>
      <point x="309" y="510"/>
      <point x="393" y="932"/>
      <point x="580" y="932" type="curve" smooth="yes"/>
      <point x="625" y="932"/>
      <point x="668" y="911"/>
      <point x="715" y="874" type="curve"/>
      <point x="829" y="1063" type="line"/>
      <point x="756" y="1122"/>
      <point x="664" y="1141"/>
      <point x="571" y="1141" type="curve" smooth="yes"/>
      <point x="244" y="1141"/>
      <point x="51" y="707"/>
      <point x="51" y="346" type="curve" smooth="yes"/>
      <point x="51" y="123"/>
      <point x="150" y="-16"/>
    </contour>
  </outline>
</glyph>
<glyph name="uni1D21" format="2">
  <advance width="1229"/>
  <unicode hex="1D21"/>
  <anchor x="500" y="0" name="bottom"/>
  <anchor x="729" y="1085" name="top"/>
  <outline>
    <contour>
      <point x="115" y="0" type="line"/>
      <point x="389" y="0" type="line"/>
      <point x="571" y="467" type="line" smooth="yes"/>
      <point x="590" y="510"/>
      <point x="606" y="561"/>
      <point x="623" y="606" type="curve"/>
      <point x="627" y="606" type="line"/>
      <point x="621" y="553"/>
      <point x="614" y="496"/>
      <point x="614" y="451" type="curve" smooth="yes"/>
      <point x="604" y="0" type="line"/>
      <point x="883" y="0" type="line"/>
      <point x="1323" y="1124" type="line"/>
      <point x="1077" y="1124" type="line"/>
      <point x="883" y="616" type="line" smooth="yes"/>
      <point x="852" y="535"/>
      <point x="829" y="477"/>
      <point x="811" y="418" type="curve"/>
      <point x="807" y="418" type="line"/>
      <point x="811" y="489"/>
      <point x="815" y="532"/>
      <point x="819" y="614" type="curve" smooth="yes"/>
      <point x="838" y="1124" type="line"/>
      <point x="637" y="1124" type="line"/>
      <point x="426" y="610" type="line" smooth="yes"/>
      <point x="401" y="545"/>
      <point x="375" y="483"/>
      <point x="352" y="418" type="curve"/>
      <point x="348" y="418" type="line"/>
      <point x="354" y="467"/>
      <point x="362" y="530"/>
      <point x="367" y="612" type="curve" smooth="yes"/>
      <point x="393" y="1124" type="line"/>
      <point x="156" y="1124" type="line"/>
    </contour>
  </outline>
</glyph>
<glyph name="uni1D25" format="2">
  <advance width="883"/>
  <unicode hex="1D25"/>
  <anchor x="328" y="0" name="bottom"/>
  <anchor x="557" y="1085" name="top"/>
  <outline>
    <contour>
      <point x="29" y="-18" type="curve" smooth="yes"/>
      <point x="152" y="-18"/>
      <point x="236" y="49"/>
      <point x="365" y="233" type="curve"/>
      <point x="436" y="59"/>
      <point x="498" y="-20"/>
      <point x="639" y="-20" type="curve" smooth="yes"/>
      <point x="674" y="-20"/>
      <point x="721" y="-12"/>
      <point x="758" y="-2" type="curve"/>
      <point x="758" y="215" type="line"/>
      <point x="733" y="205"/>
      <point x="717" y="201"/>
      <point x="696" y="201" type="curve" smooth="yes"/>
      <point x="639" y="201"/>
      <point x="600" y="229"/>
      <point x="537" y="408" type="curve"/>
      <point x="739" y="610"/>
      <point x="797" y="752"/>
      <point x="797" y="889" type="curve" smooth="yes"/>
      <point x="797" y="1042"/>
      <point x="702" y="1137"/>
      <point x="512" y="1137" type="curve" smooth="yes"/>
      <point x="297" y="1137"/>
      <point x="176" y="977"/>
      <point x="176" y="784" type="curve" smooth="yes"/>
      <point x="176" y="659"/>
      <point x="203" y="541"/>
      <point x="254" y="432" type="curve"/>
      <point x="104" y="217"/>
      <point x="63" y="190"/>
      <point x="8" y="190" type="curve" smooth="yes"/>
      <point x="-12" y="190"/>
      <point x="-33" y="197"/>
      <point x="-51" y="207" type="curve"/>
      <point x="-98" y="4" type="line"/>
      <point x="-72" y="-8"/>
      <point x="-23" y="-18"/>
    </contour>
  </outline>
</glyph>
<glyph name="uni1D6F" format="2">
  <advance width="1374"/>
  <unicode hex="1D6F"/>
  <outline>
    <contour>
      <point x="1204" y="346" type="curve" smooth="yes"/>
      <point x="1432" y="346"/>
      <point x="1585" y="485"/>
      <point x="1612" y="721" type="curve"/>
      <point x="1468" y="721" type="line"/>
      <point x="1456" y="584"/>
      <point x="1376" y="516"/>
      <point x="1233" y="516" type="curve" smooth="yes"/>
      <point x="899" y="516"/>
      <point x="680" y="713"/>
      <point x="303" y="713" type="curve" smooth="yes"/>
      <point x="80" y="713"/>
      <point x="-78" y="575"/>
      <point x="-104" y="338" type="curve"/>
      <point x="37" y="338" type="line"/>
      <point x="49" y="477"/>
      <point x="133" y="545"/>
      <point x="270" y="545" type="curve" smooth="yes"/>
      <point x="596" y="545"/>
      <point x="838" y="346"/>
    </contour>
    <component base="m" xOffset="68"/>
  </outline>
</glyph>
<glyph name="uni1D79" format="2">
  <advance width="821"/>
  <unicode hex="1D79"/>
  <outline>
    <contour>
      <point x="211" y="-494" type="curve" smooth="yes"/>
      <point x="567" y="-494"/>
      <point x="713" y="-92"/>
      <point x="705" y="199" type="curve" smooth="yes"/>
      <point x="705" y="283"/>
      <point x="682" y="350"/>
      <point x="627" y="434" type="curve" smooth="yes"/>
      <point x="459" y="672" type="line"/>
      <point x="786" y="950" type="line"/>
      <point x="821" y="1116" type="line"/>
      <point x="182" y="1116" type="line"/>
      <point x="137" y="907" type="line"/>
      <point x="442" y="907" type="line"/>
      <point x="260" y="762" type="line"/>
      <point x="238" y="627" type="line"/>
      <point x="319" y="508" type="line"/>
      <point x="-10" y="465"/>
      <point x="-115" y="57"/>
      <point x="-111" y="-176" type="curve" smooth="yes"/>
      <point x="-104" y="-377"/>
      <point x="12" y="-494"/>
    </contour>
    <contour>
      <point x="231" y="-285" type="curve" smooth="yes"/>
      <point x="170" y="-285"/>
      <point x="139" y="-242"/>
      <point x="137" y="-158" type="curve" smooth="yes"/>
      <point x="135" y="-4"/>
      <point x="201" y="305"/>
      <point x="367" y="305" type="curve" smooth="yes"/>
      <point x="428" y="305"/>
      <point x="457" y="260"/>
      <point x="459" y="180" type="curve" smooth="yes"/>
      <point x="461" y="8"/>
      <point x="375" y="-285"/>
    </contour>
  </outline>
</glyph>
<glyph name="uni1D86" format="2">
  <advance width="1440"/>
  <unicode hex="1D86"/>
  <outline>
    <contour>
      <point x="1001" y="-436" type="curve" smooth="yes"/>
      <point x="1143" y="-436"/>
      <point x="1212" y="-362"/>
      <point x="1245" y="-205" type="curve" smooth="yes"/>
      <point x="1335" y="215" type="line"/>
      <point x="1198" y="215" type="line"/>
      <point x="1311" y="743" type="line" smooth="yes"/>
      <point x="1323" y="803"/>
      <point x="1331" y="862"/>
      <point x="1331" y="907" type="curve" smooth="yes"/>
      <point x="1331" y="1055"/>
      <point x="1255" y="1137"/>
      <point x="1124" y="1137" type="curve" smooth="yes"/>
      <point x="1024" y="1137"/>
      <point x="936" y="1083"/>
      <point x="872" y="995" type="curve"/>
      <point x="866" y="995" type="line"/>
      <point x="838" y="1092"/>
      <point x="772" y="1137"/>
      <point x="662" y="1137" type="curve" smooth="yes"/>
      <point x="561" y="1137"/>
      <point x="475" y="1077"/>
      <point x="416" y="981" type="curve"/>
      <point x="408" y="981" type="line"/>
      <point x="422" y="1116" type="line"/>
      <point x="223" y="1116" type="line"/>
      <point x="-14" y="0" type="line"/>
      <point x="233" y="0" type="line"/>
      <point x="360" y="598" type="line" smooth="yes"/>
      <point x="389" y="748"/>
      <point x="442" y="913"/>
      <point x="549" y="913" type="curve" smooth="yes"/>
      <point x="592" y="913"/>
      <point x="614" y="885"/>
      <point x="614" y="825" type="curve" smooth="yes"/>
      <point x="614" y="793"/>
      <point x="606" y="741"/>
      <point x="596" y="688" type="curve" smooth="yes"/>
      <point x="449" y="0" type="line"/>
      <point x="694" y="0" type="line"/>
      <point x="834" y="653" type="line" smooth="yes"/>
      <point x="858" y="772"/>
      <point x="909" y="913"/>
      <point x="1004" y="913" type="curve" smooth="yes"/>
      <point x="1049" y="913"/>
      <point x="1071" y="885"/>
      <point x="1071" y="823" type="curve" smooth="yes"/>
      <point x="1071" y="788"/>
      <point x="1063" y="735"/>
      <point x="1051" y="680" type="curve" smooth="yes"/>
      <point x="907" y="0" type="line"/>
      <point x="1047" y="0" type="line"/>
      <point x="1020" y="-129" type="line" smooth="yes"/>
      <point x="1006" y="-197"/>
      <point x="981" y="-221"/>
      <point x="936" y="-221" type="curve" smooth="yes"/>
      <point x="911" y="-221"/>
      <point x="885" y="-213"/>
      <point x="870" y="-203" type="curve"/>
      <point x="870" y="-414" type="line"/>
      <point x="901" y="-426"/>
      <point x="950" y="-436"/>
    </contour>
  </outline>
</glyph>
<glyph name="uni1D8C" format="2">
  <advance width="870"/>
  <unicode hex="1D8C"/>
  <outline>
    <contour>
      <point x="459" y="-436" type="curve" smooth="yes"/>
      <point x="600" y="-436"/>
      <point x="670" y="-362"/>
      <point x="702" y="-205" type="curve" smooth="yes"/>
      <point x="791" y="213" type="line"/>
      <point x="518" y="213" type="line"/>
      <point x="926" y="1116" type="line"/>
      <point x="668" y="1116" type="line"/>
      <point x="418" y="516" type="line" smooth="yes"/>
      <point x="399" y="467"/>
      <point x="377" y="414"/>
      <point x="362" y="360" type="curve"/>
      <point x="354" y="360" type="line"/>
      <point x="362" y="426"/>
      <point x="365" y="524"/>
      <point x="365" y="592" type="curve"/>
      <point x="369" y="1116" type="line"/>
      <point x="123" y="1116" type="line"/>
      <point x="156" y="0" type="line"/>
      <point x="502" y="0" type="line"/>
      <point x="477" y="-129" type="line" smooth="yes"/>
      <point x="463" y="-197"/>
      <point x="438" y="-221"/>
      <point x="393" y="-221" type="curve" smooth="yes"/>
      <point x="367" y="-221"/>
      <point x="342" y="-213"/>
      <point x="328" y="-203" type="curve"/>
      <point x="328" y="-414" type="line"/>
      <point x="356" y="-426"/>
      <point x="406" y="-436"/>
    </contour>
  </outline>
</glyph>
<glyph name="uni1D92" format="2">
  <advance width="864"/>
  <unicode hex="1D92"/>
  <outline>
    <contour>
      <point x="573" y="-442" type="curve" smooth="yes"/>
      <point x="637" y="-442"/>
      <point x="700" y="-432"/>
      <point x="733" y="-422" type="curve"/>
      <point x="733" y="-211" type="line"/>
      <point x="717" y="-221"/>
      <point x="688" y="-229"/>
      <point x="666" y="-229" type="curve" smooth="yes"/>
      <point x="637" y="-229"/>
      <point x="610" y="-217"/>
      <point x="610" y="-178" type="curve" smooth="yes"/>
      <point x="610" y="-154"/>
      <point x="616" y="-119"/>
      <point x="623" y="-92" type="curve" smooth="yes"/>
      <point x="698" y="254" type="line"/>
      <point x="600" y="199"/>
      <point x="518" y="180"/>
      <point x="432" y="180" type="curve" smooth="yes"/>
      <point x="334" y="180"/>
      <point x="285" y="233"/>
      <point x="285" y="365" type="curve" smooth="yes"/>
      <point x="285" y="401"/>
      <point x="289" y="440"/>
      <point x="297" y="477" type="curve"/>
      <point x="313" y="477" type="line" smooth="yes"/>
      <point x="637" y="477"/>
      <point x="844" y="614"/>
      <point x="844" y="874" type="curve" smooth="yes"/>
      <point x="844" y="1038"/>
      <point x="733" y="1135"/>
      <point x="569" y="1135" type="curve" smooth="yes"/>
      <point x="225" y="1135"/>
      <point x="43" y="733"/>
      <point x="43" y="338" type="curve" smooth="yes"/>
      <point x="43" y="113"/>
      <point x="168" y="-20"/>
      <point x="330" y="-20" type="curve" smooth="yes"/>
      <point x="356" y="-20"/>
      <point x="379" y="-18"/>
      <point x="393" y="-14" type="curve"/>
      <point x="379" y="-86" type="line" smooth="yes"/>
      <point x="365" y="-166"/>
      <point x="354" y="-213"/>
      <point x="354" y="-256" type="curve" smooth="yes"/>
      <point x="354" y="-358"/>
      <point x="430" y="-442"/>
    </contour>
    <contour>
      <point x="332" y="655" type="line"/>
      <point x="377" y="834"/>
      <point x="453" y="940"/>
      <point x="535" y="940" type="curve" smooth="yes"/>
      <point x="588" y="940"/>
      <point x="616" y="905"/>
      <point x="616" y="852" type="curve" smooth="yes"/>
      <point x="616" y="739"/>
      <point x="547" y="655"/>
      <point x="338" y="655" type="curve" smooth="yes"/>
    </contour>
  </outline>
</glyph>
<glyph name="dottedacute" format="2">
  <unicode hex="1DC1"/>
  <anchor x="117" y="1085" name="_top"/>
  <anchor x="197" y="1561" name="top"/>
  <outline>
    <contour>
      <point x="-27" y="1239" type="line"/>
      <point x="152" y="1239" type="line"/>
      <point x="207" y="1296"/>
      <point x="352" y="1460"/>
      <point x="397" y="1530" type="curve"/>
      <point x="395" y="1546" type="line"/>
      <point x="117" y="1546" type="line"/>
      <point x="80" y="1450"/>
      <point x="35" y="1364"/>
      <point x="-25" y="1260" type="curve"/>
    </contour>
    <contour>
      <point x="-168" y="1272" type="curve"/>
      <point x="-92" y="1272"/>
      <point x="-37" y="1337"/>
      <point x="-37" y="1430" type="curve" smooth="yes"/>
      <point x="-37" y="1479"/>
      <point x="-66" y="1507"/>
      <point x="-117" y="1507" type="curve"/>
      <point x="-197" y="1507"/>
      <point x="-252" y="1446"/>
      <point x="-252" y="1354" type="curve"/>
      <point x="-252" y="1298"/>
      <point x="-225" y="1272"/>
    </contour>
    <contour>
      <point x="487" y="1284" type="curve"/>
      <point x="557" y="1284"/>
      <point x="612" y="1350"/>
      <point x="616" y="1440" type="curve" smooth="yes"/>
      <point x="616" y="1491"/>
      <point x="588" y="1518"/>
      <point x="539" y="1518" type="curve"/>
      <point x="457" y="1518"/>
      <point x="401" y="1456"/>
      <point x="401" y="1366" type="curve"/>
      <point x="401" y="1311"/>
      <point x="430" y="1284"/>
    </contour>
  </outline>
</glyph>
<glyph name="ogonekabove" format="2">
  <unicode hex="1DCE"/>
  <anchor x="-258" y="1085" name="_top"/>
  <anchor x="-182" y="1604" name="top"/>
  <outline>
    <contour>
      <point x="-260" y="1098" type="line"/>
      <point x="-111" y="1206"/>
      <point x="-23" y="1317"/>
      <point x="-23" y="1444" type="curve" smooth="yes"/>
      <point x="-23" y="1536"/>
      <point x="-80" y="1604"/>
      <point x="-195" y="1604" type="curve" smooth="yes"/>
      <point x="-242" y="1604"/>
      <point x="-285" y="1599"/>
      <point x="-330" y="1583" type="curve"/>
      <point x="-365" y="1417" type="line"/>
      <point x="-332" y="1425"/>
      <point x="-301" y="1430"/>
      <point x="-281" y="1430" type="curve" smooth="yes"/>
      <point x="-252" y="1430"/>
      <point x="-231" y="1413"/>
      <point x="-231" y="1378" type="curve" smooth="yes"/>
      <point x="-233" y="1303"/>
      <point x="-276" y="1229"/>
      <point x="-381" y="1128" type="curve"/>
    </contour>
  </outline>
</glyph>
<glyph name="uni1DFD" format="2">
  <unicode hex="1DFD"/>
  <anchor x="-96" y="109" name="_bottom"/>
  <outline>
    <contour>
      <point x="-489" y="-238" type="line"/>
      <point x="-430" y="-184"/>
      <point x="-367" y="-150"/>
      <point x="-315" y="-150" type="curve" smooth="yes"/>
      <point x="-272" y="-150"/>
      <point x="-229" y="-162"/>
      <point x="-176" y="-190" type="curve" smooth="yes"/>
      <point x="-109" y="-223"/>
      <point x="-72" y="-236"/>
      <point x="-14" y="-236" type="curve" smooth="yes"/>
      <point x="53" y="-236"/>
      <point x="117" y="-209"/>
      <point x="168" y="-160" type="curve"/>
      <point x="199" y="-16" type="line"/>
      <point x="145" y="-66"/>
      <point x="80" y="-100"/>
      <point x="29" y="-100" type="curve" smooth="yes"/>
      <point x="-14" y="-100"/>
      <point x="-55" y="-90"/>
      <point x="-111" y="-61" type="curve" smooth="yes"/>
      <point x="-178" y="-29"/>
      <point x="-219" y="-14"/>
      <point x="-272" y="-14" type="curve" smooth="yes"/>
      <point x="-342" y="-14"/>
      <point x="-403" y="-41"/>
      <point x="-457" y="-92" type="curve"/>
    </contour>
    <contour>
      <point x="-541" y="-492" type="line"/>
      <point x="-485" y="-440"/>
      <point x="-420" y="-408"/>
      <point x="-369" y="-408" type="curve" smooth="yes"/>
      <point x="-326" y="-408"/>
      <point x="-283" y="-418"/>
      <point x="-231" y="-446" type="curve" smooth="yes"/>
      <point x="-162" y="-479"/>
      <point x="-125" y="-492"/>
      <point x="-70" y="-492" type="curve" smooth="yes"/>
      <point x="0" y="-492"/>
      <point x="61" y="-465"/>
      <point x="115" y="-416" type="curve"/>
      <point x="145" y="-270" type="line"/>
      <point x="92" y="-322"/>
      <point x="25" y="-356"/>
      <point x="-27" y="-356" type="curve" smooth="yes"/>
      <point x="-68" y="-356"/>
      <point x="-111" y="-346"/>
      <point x="-164" y="-317" type="curve" smooth="yes"/>
      <point x="-233" y="-283"/>
      <point x="-272" y="-272"/>
      <point x="-328" y="-272" type="curve" smooth="yes"/>
      <point x="-397" y="-272"/>
      <point x="-457" y="-299"/>
      <point x="-510" y="-348" type="curve"/>
    </contour>
  </outline>
</glyph>
<glyph name="Yloop" format="2">
  <advance width="954"/>
  <unicode hex="1EFE"/>
  <anchor x="362" y="0" name="bottom"/>
  <anchor x="672" y="1462" name="top"/>
  <outline>
    <contour>
      <point x="156" y="-18" type="curve" smooth="yes"/>
      <point x="393" y="-18"/>
      <point x="516" y="164"/>
      <point x="623" y="389" type="curve" smooth="yes"/>
      <point x="1147" y="1462" type="line"/>
      <point x="874" y="1462" type="line"/>
      <point x="698" y="1069" type="line" smooth="yes"/>
      <point x="657" y="981"/>
      <point x="625" y="899"/>
      <point x="596" y="823" type="curve"/>
      <point x="594" y="872"/>
      <point x="584" y="987"/>
      <point x="578" y="1047" type="curve" smooth="yes"/>
      <point x="532" y="1462" type="line"/>
      <point x="270" y="1462" type="line"/>
      <point x="408" y="530" type="line"/>
      <point x="268" y="215"/>
      <point x="193" y="145"/>
      <point x="127" y="145" type="curve" smooth="yes"/>
      <point x="98" y="145"/>
      <point x="82" y="162"/>
      <point x="82" y="199" type="curve" smooth="yes"/>
      <point x="82" y="317"/>
      <point x="190" y="475"/>
      <point x="428" y="549" type="curve"/>
      <point x="449" y="717" type="line"/>
      <point x="106" y="612"/>
      <point x="-90" y="424"/>
      <point x="-90" y="197" type="curve" smooth="yes"/>
      <point x="-90" y="68"/>
      <point x="-25" y="-18"/>
    </contour>
  </outline>
</glyph>
<glyph name="uni1FEF" format="2">
  <advance width="868"/>
  <unicode hex="1FEF"/>
  <anchor x="473" y="1085" name="_top"/>
  <anchor x="561" y="1589" name="top"/>
  <outline>
    <contour>
      <point x="522" y="1255" type="curve"/>
      <point x="659" y="1255" type="line"/>
      <point x="666" y="1280" type="line"/>
      <point x="657" y="1343"/>
      <point x="651" y="1513"/>
      <point x="651" y="1589" type="curve"/>
      <point x="430" y="1589" type="line"/>
      <point x="426" y="1569" type="line"/>
      <point x="440" y="1491"/>
      <point x="492" y="1327"/>
    </contour>
  </outline>
</glyph>
<glyph name="uni201F" format="2">
  <advance width="852"/>
  <unicode hex="201F"/>
  <outline>
    <contour>
      <point x="647" y="920" type="curve"/>
      <point x="858" y="920" type="line"/>
      <point x="850" y="1055"/>
      <point x="846" y="1317"/>
      <point x="868" y="1462" type="curve"/>
      <point x="627" y="1462" type="line"/>
      <point x="608" y="1436" type="line"/>
      <point x="610" y="1264"/>
      <point x="621" y="1073"/>
    </contour>
    <contour>
      <point x="266" y="920" type="curve"/>
      <point x="477" y="920" type="line"/>
      <point x="469" y="1055"/>
      <point x="465" y="1317"/>
      <point x="487" y="1462" type="curve"/>
      <point x="246" y="1462" type="line"/>
      <point x="227" y="1436" type="line"/>
      <point x="229" y="1264"/>
      <point x="240" y="1073"/>
    </contour>
  </outline>
</glyph>
<glyph name="daggerdbl" format="2">
  <advance width="866"/>
  <unicode hex="2021"/>
  <outline>
    <contour>
      <point x="180" y="0" type="line"/>
      <point x="426" y="0" type="line"/>
      <point x="467" y="387" type="line"/>
      <point x="727" y="356" type="line"/>
      <point x="774" y="575" type="line"/>
      <point x="500" y="549" type="line"/>
      <point x="584" y="786" type="line"/>
      <point x="598" y="1008" type="line"/>
      <point x="860" y="981" type="line"/>
      <point x="907" y="1200" type="line"/>
      <point x="633" y="1171" type="line"/>
      <point x="758" y="1556" type="line"/>
      <point x="512" y="1556" type="line"/>
      <point x="471" y="1171" type="line"/>
      <point x="213" y="1200" type="line"/>
      <point x="166" y="981" type="line"/>
      <point x="436" y="1008" type="line"/>
      <point x="354" y="784" type="line"/>
      <point x="338" y="549" type="line"/>
      <point x="80" y="575" type="line"/>
      <point x="33" y="356" type="line"/>
      <point x="303" y="387" type="line"/>
    </contour>
  </outline>
</glyph>
<glyph name="caret" format="2">
  <advance width="877"/>
  <unicode hex="2038"/>
  <outline>
    <contour>
      <point x="-233" y="-489" type="line"/>
      <point x="0" y="-489" type="line"/>
      <point x="324" y="33" type="line"/>
      <point x="434" y="-489" type="line"/>
      <point x="655" y="-489" type="line"/>
      <point x="465" y="385" type="line"/>
      <point x="319" y="385" type="line"/>
    </contour>
  </outline>
</glyph>
<glyph name="guilsinglleft" format="2">
  <advance width="565"/>
  <unicode hex="2039"/>
  <outline>
    <contour>
      <point x="252" y="92" type="line"/>
      <point x="451" y="178" type="line"/>
      <point x="297" y="549" type="line"/>
      <point x="571" y="905" type="line"/>
      <point x="397" y="1014" type="line"/>
      <point x="45" y="567" type="line"/>
      <point x="43" y="543" type="line"/>
    </contour>
  </outline>
</glyph>
<glyph name="guilsinglright" format="2">
  <advance width="565"/>
  <unicode hex="203A"/>
  <outline>
    <contour>
      <point x="160" y="92" type="line"/>
      <point x="510" y="539" type="line"/>
      <point x="514" y="563" type="line"/>
      <point x="303" y="1014" type="line"/>
      <point x="106" y="926" type="line"/>
      <point x="258" y="557" type="line"/>
      <point x="-14" y="199" type="line"/>
    </contour>
  </outline>
</glyph>
<glyph name="referencemark" format="2">
  <advance width="1726"/>
  <unicode hex="203B"/>
  <outline>
    <contour>
      <point x="274" y="-10" type="line"/>
      <point x="864" y="584" type="line"/>
      <point x="1456" y="-10" type="line"/>
      <point x="1599" y="133" type="line"/>
      <point x="1010" y="727" type="line"/>
      <point x="1602" y="1321" type="line"/>
      <point x="1458" y="1464" type="line"/>
      <point x="864" y="870" type="line"/>
      <point x="272" y="1464" type="line"/>
      <point x="129" y="1321" type="line"/>
      <point x="721" y="727" type="line"/>
      <point x="129" y="133" type="line"/>
    </contour>
    <contour>
      <point x="217" y="582" type="curve" smooth="yes"/>
      <point x="301" y="582"/>
      <point x="365" y="625"/>
      <point x="365" y="725" type="curve" smooth="yes"/>
      <point x="365" y="829"/>
      <point x="301" y="872"/>
      <point x="217" y="872" type="curve" smooth="yes"/>
      <point x="131" y="872"/>
      <point x="66" y="829"/>
      <point x="66" y="725" type="curve" smooth="yes"/>
      <point x="66" y="625"/>
      <point x="131" y="582"/>
    </contour>
    <contour>
      <point x="860" y="-53" type="curve" smooth="yes"/>
      <point x="944" y="-53"/>
      <point x="1008" y="-12"/>
      <point x="1008" y="90" type="curve" smooth="yes"/>
      <point x="1008" y="195"/>
      <point x="944" y="236"/>
      <point x="860" y="236" type="curve" smooth="yes"/>
      <point x="774" y="236"/>
      <point x="709" y="195"/>
      <point x="709" y="90" type="curve" smooth="yes"/>
      <point x="709" y="-12"/>
      <point x="774" y="-53"/>
    </contour>
    <contour>
      <point x="860" y="1210" type="curve" smooth="yes"/>
      <point x="944" y="1210"/>
      <point x="1008" y="1253"/>
      <point x="1008" y="1356" type="curve" smooth="yes"/>
      <point x="1008" y="1460"/>
      <point x="944" y="1501"/>
      <point x="860" y="1501" type="curve" smooth="yes"/>
      <point x="774" y="1501"/>
      <point x="709" y="1460"/>
      <point x="709" y="1356" type="curve" smooth="yes"/>
      <point x="709" y="1253"/>
      <point x="774" y="1210"/>
    </contour>
    <contour>
      <point x="1513" y="582" type="curve" smooth="yes"/>
      <point x="1597" y="582"/>
      <point x="1661" y="625"/>
      <point x="1661" y="725" type="curve" smooth="yes"/>
      <point x="1661" y="829"/>
      <point x="1597" y="872"/>
      <point x="1513" y="872" type="curve" smooth="yes"/>
      <point x="1427" y="872"/>
      <point x="1362" y="829"/>
      <point x="1362" y="725" type="curve" smooth="yes"/>
      <point x="1362" y="625"/>
      <point x="1427" y="582"/>
    </contour>
  </outline>
</glyph>
<glyph name="undertie" format="2">
  <advance width="1077"/>
  <unicode hex="203F"/>
  <outline>
    <contour>
      <point x="338" y="-557" type="curve" smooth="yes"/>
      <point x="594" y="-557"/>
      <point x="754" y="-373"/>
      <point x="852" y="-131" type="curve"/>
      <point x="727" y="-94" type="line"/>
      <point x="657" y="-242"/>
      <point x="537" y="-379"/>
      <point x="338" y="-379" type="curve" smooth="yes"/>
      <point x="125" y="-379"/>
      <point x="66" y="-238"/>
      <point x="49" y="-94" type="curve"/>
      <point x="-84" y="-125" type="line"/>
      <point x="-72" y="-367"/>
      <point x="72" y="-557"/>
    </contour>
  </outline>
</glyph>
<glyph name="caretinsertionpoint" format="2">
  <advance width="877"/>
  <unicode hex="2041"/>
  <outline>
    <contour>
      <point x="-233" y="-492" type="line"/>
      <point x="-2" y="-492" type="line"/>
      <point x="713" y="823" type="line"/>
      <point x="483" y="823" type="line"/>
    </contour>
    <contour>
      <point x="434" y="-492" type="line"/>
      <point x="653" y="-492" type="line"/>
      <point x="457" y="422" type="line"/>
      <point x="285" y="385" type="line"/>
      <point x="299" y="156" type="line"/>
    </contour>
  </outline>
</glyph>
<glyph name="flowerpunctuationmark" format="2">
  <advance width="1157"/>
  <unicode hex="2055"/>
  <outline>
    <contour>
      <point x="662" y="-20" type="line"/>
      <point x="662" y="289" type="line"/>
      <point x="881" y="72" type="line"/>
      <point x="1014" y="201" type="line"/>
      <point x="795" y="420" type="line"/>
      <point x="1104" y="420" type="line"/>
      <point x="1104" y="606" type="line"/>
      <point x="795" y="606" type="line"/>
      <point x="1014" y="825" type="line"/>
      <point x="881" y="958" type="line"/>
      <point x="662" y="737" type="line"/>
      <point x="662" y="1047" type="line"/>
      <point x="475" y="1047" type="line"/>
      <point x="475" y="737" type="line"/>
      <point x="256" y="958" type="line"/>
      <point x="125" y="825" type="line"/>
      <point x="344" y="606" type="line"/>
      <point x="35" y="606" type="line"/>
      <point x="35" y="420" type="line"/>
      <point x="346" y="420" type="line"/>
      <point x="127" y="203" type="line"/>
      <point x="256" y="68" type="line"/>
      <point x="475" y="289" type="line"/>
      <point x="475" y="-18" type="line"/>
    </contour>
  </outline>
</glyph>
<glyph name="eightsuperior" format="2">
  <advance width="621"/>
  <unicode hex="2078"/>
  <outline>
    <contour>
      <point x="375" y="834" type="curve" smooth="yes"/>
      <point x="547" y="834"/>
      <point x="684" y="942"/>
      <point x="684" y="1116" type="curve" smooth="yes"/>
      <point x="684" y="1217"/>
      <point x="647" y="1270"/>
      <point x="575" y="1315" type="curve"/>
      <point x="692" y="1372"/>
      <point x="752" y="1450"/>
      <point x="752" y="1550" type="curve" smooth="yes"/>
      <point x="752" y="1675"/>
      <point x="670" y="1743"/>
      <point x="526" y="1743" type="curve" smooth="yes"/>
      <point x="358" y="1743"/>
      <point x="244" y="1642"/>
      <point x="244" y="1489" type="curve" smooth="yes"/>
      <point x="244" y="1411"/>
      <point x="266" y="1358"/>
      <point x="319" y="1307" type="curve"/>
      <point x="193" y="1243"/>
      <point x="125" y="1167"/>
      <point x="125" y="1047" type="curve" smooth="yes"/>
      <point x="125" y="905"/>
      <point x="213" y="834"/>
    </contour>
    <contour>
      <point x="387" y="977" type="curve" smooth="yes"/>
      <point x="334" y="977"/>
      <point x="309" y="1018"/>
      <point x="309" y="1067" type="curve" smooth="yes"/>
      <point x="309" y="1145"/>
      <point x="362" y="1202"/>
      <point x="432" y="1231" type="curve"/>
      <point x="475" y="1206"/>
      <point x="504" y="1167"/>
      <point x="504" y="1114" type="curve" smooth="yes"/>
      <point x="504" y="1032"/>
      <point x="455" y="977"/>
    </contour>
    <contour>
      <point x="471" y="1380" type="curve"/>
      <point x="432" y="1411"/>
      <point x="416" y="1444"/>
      <point x="416" y="1487" type="curve" smooth="yes"/>
      <point x="416" y="1550"/>
      <point x="446" y="1602"/>
      <point x="508" y="1602" type="curve" smooth="yes"/>
      <point x="553" y="1602"/>
      <point x="575" y="1579"/>
      <point x="575" y="1532" type="curve" smooth="yes"/>
      <point x="575" y="1460"/>
      <point x="530" y="1411"/>
    </contour>
  </outline>
</glyph>
<glyph name="afii08941" format="2">
  <advance width="889"/>
  <unicode hex="20A4"/>
  <outline>
    <contour>
      <point x="-37" y="0" type="line"/>
      <point x="692" y="0" type="line"/>
      <point x="739" y="225" type="line"/>
      <point x="264" y="225" type="line"/>
      <point x="371" y="270"/>
      <point x="403" y="328"/>
      <point x="434" y="473" type="curve"/>
      <point x="653" y="473" type="line"/>
      <point x="690" y="639" type="line"/>
      <point x="469" y="639" type="line"/>
      <point x="500" y="788" type="line"/>
      <point x="721" y="788" type="line"/>
      <point x="756" y="952" type="line"/>
      <point x="537" y="952" type="line"/>
      <point x="561" y="1077" type="line" smooth="yes"/>
      <point x="582" y="1176"/>
      <point x="614" y="1255"/>
      <point x="709" y="1255" type="curve" smooth="yes"/>
      <point x="760" y="1255"/>
      <point x="815" y="1233"/>
      <point x="862" y="1194" type="curve"/>
      <point x="967" y="1399" type="line"/>
      <point x="897" y="1454"/>
      <point x="801" y="1483"/>
      <point x="702" y="1483" type="curve" smooth="yes"/>
      <point x="479" y="1483"/>
      <point x="369" y="1337"/>
      <point x="319" y="1110" type="curve" smooth="yes"/>
      <point x="289" y="952" type="line"/>
      <point x="154" y="952" type="line"/>
      <point x="119" y="788" type="line"/>
      <point x="254" y="788" type="line"/>
      <point x="219" y="639" type="line"/>
      <point x="88" y="639" type="line"/>
      <point x="51" y="473" type="line"/>
      <point x="186" y="473" type="line"/>
      <point x="154" y="324"/>
      <point x="117" y="260"/>
      <point x="10" y="211" type="curve"/>
    </contour>
  </outline>
</glyph>
<glyph name="uni20AE" format="2">
  <advance width="795"/>
  <unicode hex="20AE"/>
  <outline>
    <contour>
      <point x="143" y="0" type="line"/>
      <point x="399" y="0" type="line"/>
      <point x="500" y="473" type="line"/>
      <point x="754" y="586" type="line"/>
      <point x="696" y="715" type="line"/>
      <point x="537" y="643" type="line"/>
      <point x="571" y="811" type="line"/>
      <point x="825" y="926" type="line"/>
      <point x="768" y="1055" type="line"/>
      <point x="608" y="981" type="line"/>
      <point x="662" y="1235" type="line"/>
      <point x="905" y="1235" type="line"/>
      <point x="954" y="1462" type="line"/>
      <point x="209" y="1462" type="line"/>
      <point x="162" y="1235" type="line"/>
      <point x="406" y="1235" type="line"/>
      <point x="326" y="866" type="line"/>
      <point x="72" y="752" type="line"/>
      <point x="129" y="625" type="line"/>
      <point x="291" y="696" type="line"/>
      <point x="254" y="526" type="line"/>
      <point x="0" y="412" type="line"/>
      <point x="57" y="283" type="line"/>
      <point x="219" y="356" type="line"/>
    </contour>
  </outline>
</glyph>
<glyph name="tenge" format="2">
  <advance width="862"/>
  <unicode hex="20B8"/>
  <outline>
    <contour>
      <point x="168" y="0" type="line"/>
      <point x="420" y="0" type="line"/>
      <point x="621" y="944" type="line"/>
      <point x="893" y="944" type="line"/>
      <point x="932" y="1128" type="line"/>
      <point x="133" y="1128" type="line"/>
      <point x="94" y="944" type="line"/>
      <point x="369" y="944" type="line"/>
    </contour>
    <contour>
      <point x="166" y="1278" type="line"/>
      <point x="965" y="1278" type="line"/>
      <point x="1006" y="1462" type="line"/>
      <point x="205" y="1462" type="line"/>
    </contour>
  </outline>
</glyph>
<glyph name="scriptg" format="2">
  <advance width="1188"/>
  <unicode hex="210A"/>
  <outline>
    <contour>
      <point x="-80" y="-797" type="curve" smooth="yes"/>
      <point x="156" y="-797"/>
      <point x="358" y="-584"/>
      <point x="506" y="-305" type="curve" smooth="yes"/>
      <point x="668" y="-2" type="line"/>
      <point x="889" y="113"/>
      <point x="1044" y="309"/>
      <point x="1065" y="358" type="curve"/>
      <point x="1024" y="358" type="line"/>
      <point x="983" y="303"/>
      <point x="854" y="152"/>
      <point x="694" y="57" type="curve"/>
      <point x="1116" y="795" type="line"/>
      <point x="874" y="795" type="line"/>
      <point x="780" y="664" type="line"/>
      <point x="780" y="772"/>
      <point x="727" y="813"/>
      <point x="616" y="813" type="curve" smooth="yes"/>
      <point x="459" y="813"/>
      <point x="330" y="721"/>
      <point x="233" y="610" type="curve" smooth="yes"/>
      <point x="154" y="518"/>
      <point x="78" y="426"/>
      <point x="-18" y="324" type="curve"/>
      <point x="8" y="297" type="line"/>
      <point x="61" y="350"/>
      <point x="96" y="383"/>
      <point x="141" y="428" type="curve"/>
      <point x="106" y="383"/>
      <point x="72" y="299"/>
      <point x="72" y="225" type="curve" smooth="yes"/>
      <point x="72" y="133"/>
      <point x="102" y="-18"/>
      <point x="250" y="-18" type="curve" smooth="yes"/>
      <point x="399" y="-18"/>
      <point x="494" y="106"/>
      <point x="506" y="113" type="curve"/>
      <point x="436" y="-33" type="line"/>
      <point x="154" y="-164"/>
      <point x="-272" y="-403"/>
      <point x="-272" y="-604" type="curve" smooth="yes"/>
      <point x="-272" y="-670"/>
      <point x="-217" y="-797"/>
    </contour>
    <contour>
      <point x="-82" y="-760" type="curve" smooth="yes"/>
      <point x="-131" y="-760"/>
      <point x="-182" y="-739"/>
      <point x="-182" y="-655" type="curve" smooth="yes"/>
      <point x="-182" y="-389"/>
      <point x="352" y="-119"/>
      <point x="410" y="-90" type="curve"/>
      <point x="248" y="-406" type="line" smooth="yes"/>
      <point x="143" y="-608"/>
      <point x="55" y="-760"/>
    </contour>
    <contour>
      <point x="272" y="23" type="curve" smooth="yes"/>
      <point x="250" y="23"/>
      <point x="219" y="29"/>
      <point x="219" y="66" type="curve" smooth="yes"/>
      <point x="219" y="170"/>
      <point x="498" y="766"/>
      <point x="668" y="766" type="curve" smooth="yes"/>
      <point x="711" y="766"/>
      <point x="737" y="737"/>
      <point x="737" y="684" type="curve" smooth="yes"/>
      <point x="737" y="596"/>
      <point x="684" y="489"/>
      <point x="639" y="397" type="curve" smooth="yes"/>
      <point x="551" y="217"/>
      <point x="408" y="23"/>
    </contour>
  </outline>
</glyph>
<glyph name="response" format="2">
  <advance width="948"/>
  <unicode hex="211F"/>
  <outline>
    <contour>
      <point x="182" y="-297" type="line"/>
      <point x="303" y="-297" type="line"/>
      <point x="864" y="1638" type="line"/>
      <point x="406" y="1757" type="line"/>
      <point x="377" y="1651" type="line"/>
      <point x="725" y="1567" type="line"/>
    </contour>
    <component base="R"/>
  </outline>
</glyph>
<glyph name="trademark" format="2">
  <advance width="1405"/>
  <unicode hex="2122"/>
  <outline>
    <contour>
      <point x="567" y="741" type="line"/>
      <point x="731" y="741" type="line"/>
      <point x="731" y="1092" type="line" smooth="yes"/>
      <point x="731" y="1137"/>
      <point x="729" y="1182"/>
      <point x="727" y="1229" type="curve"/>
      <point x="733" y="1229" type="line"/>
      <point x="877" y="741" type="line"/>
      <point x="981" y="741" type="line"/>
      <point x="1130" y="1227" type="line"/>
      <point x="1139" y="1227" type="line"/>
      <point x="1135" y="1186"/>
      <point x="1133" y="1141"/>
      <point x="1133" y="1090" type="curve" smooth="yes"/>
      <point x="1133" y="741" type="line"/>
      <point x="1296" y="741" type="line"/>
      <point x="1296" y="1462" type="line"/>
      <point x="1073" y="1462" type="line"/>
      <point x="932" y="1006" type="line"/>
      <point x="799" y="1462" type="line"/>
      <point x="567" y="1462" type="line"/>
    </contour>
    <contour>
      <point x="170" y="741" type="line"/>
      <point x="346" y="741" type="line"/>
      <point x="346" y="1303" type="line"/>
      <point x="508" y="1303" type="line"/>
      <point x="508" y="1462" type="line"/>
      <point x="10" y="1462" type="line"/>
      <point x="10" y="1303" type="line"/>
      <point x="170" y="1303" type="line"/>
    </contour>
  </outline>
</glyph>
<glyph name="Fscript" format="2">
  <advance width="1688"/>
  <unicode hex="2131"/>
  <outline>
    <contour>
      <point x="215" y="-20" type="curve" smooth="yes"/>
      <point x="598" y="-20"/>
      <point x="823" y="233"/>
      <point x="948" y="580" type="curve"/>
      <point x="954" y="600" type="line"/>
      <point x="997" y="604"/>
      <point x="1036" y="606"/>
      <point x="1059" y="606" type="curve"/>
      <point x="1051" y="549"/>
      <point x="987" y="426"/>
      <point x="942" y="348" type="curve"/>
      <point x="1102" y="393" type="line"/>
      <point x="1114" y="428"/>
      <point x="1176" y="598"/>
      <point x="1149" y="637" type="curve"/>
      <point x="1247" y="715"/>
      <point x="1294" y="770"/>
      <point x="1294" y="813" type="curve" smooth="yes"/>
      <point x="1294" y="838"/>
      <point x="1284" y="866"/>
      <point x="1247" y="866" type="curve" smooth="yes"/>
      <point x="1155" y="866"/>
      <point x="1092" y="692"/>
      <point x="1081" y="666" type="curve"/>
      <point x="1067" y="653"/>
      <point x="1040" y="645"/>
      <point x="1026" y="641" type="curve"/>
      <point x="967" y="633" type="line"/>
      <point x="1034" y="848"/>
      <point x="1051" y="1059"/>
      <point x="1202" y="1206" type="curve"/>
      <point x="1176" y="1227" type="line"/>
      <point x="907" y="1032"/>
      <point x="817" y="848"/>
      <point x="705" y="610" type="curve"/>
      <point x="514" y="596"/>
      <point x="379" y="496"/>
      <point x="330" y="424" type="curve"/>
      <point x="360" y="399" type="line"/>
      <point x="420" y="479"/>
      <point x="535" y="555"/>
      <point x="688" y="573" type="curve"/>
      <point x="623" y="440" type="line" smooth="yes"/>
      <point x="498" y="197"/>
      <point x="383" y="16"/>
      <point x="203" y="16" type="curve" smooth="yes"/>
      <point x="-8" y="16"/>
      <point x="-31" y="166"/>
      <point x="-31" y="188" type="curve" smooth="yes"/>
      <point x="-31" y="254"/>
      <point x="35" y="242"/>
      <point x="82" y="248" type="curve" smooth="yes"/>
      <point x="141" y="256"/>
      <point x="193" y="289"/>
      <point x="193" y="377" type="curve" smooth="yes"/>
      <point x="193" y="418"/>
      <point x="162" y="485"/>
      <point x="63" y="487" type="curve" smooth="yes"/>
      <point x="-29" y="487"/>
      <point x="-106" y="401"/>
      <point x="-106" y="293" type="curve" smooth="yes"/>
      <point x="-106" y="246"/>
      <point x="-98" y="-20"/>
    </contour>
    <contour>
      <point x="332" y="633" type="curve" smooth="yes"/>
      <point x="602" y="633"/>
      <point x="741" y="881"/>
      <point x="741" y="1038" type="curve" smooth="yes"/>
      <point x="741" y="1128"/>
      <point x="723" y="1208"/>
      <point x="678" y="1288" type="curve"/>
      <point x="649" y="1274" type="line"/>
      <point x="664" y="1210"/>
      <point x="664" y="1184"/>
      <point x="664" y="1157" type="curve" smooth="yes"/>
      <point x="664" y="1010"/>
      <point x="475" y="672"/>
      <point x="309" y="672" type="curve" smooth="yes"/>
      <point x="274" y="672"/>
      <point x="176" y="690"/>
      <point x="176" y="848" type="curve" smooth="yes"/>
      <point x="176" y="1145"/>
      <point x="506" y="1421"/>
      <point x="803" y="1421" type="curve" smooth="yes"/>
      <point x="1022" y="1421"/>
      <point x="1174" y="1255"/>
      <point x="1382" y="1255" type="curve" smooth="yes"/>
      <point x="1503" y="1255"/>
      <point x="1599" y="1364"/>
      <point x="1638" y="1446" type="curve"/>
      <point x="1604" y="1466" type="line"/>
      <point x="1567" y="1427"/>
      <point x="1530" y="1401"/>
      <point x="1430" y="1401" type="curve" smooth="yes"/>
      <point x="1245" y="1401"/>
      <point x="1217" y="1493"/>
      <point x="936" y="1493" type="curve" smooth="yes"/>
      <point x="369" y="1493"/>
      <point x="139" y="1079"/>
      <point x="139" y="856" type="curve" smooth="yes"/>
      <point x="139" y="803"/>
      <point x="150" y="633"/>
    </contour>
  </outline>
</glyph>
<glyph name="ItaliciDoubleStruck" format="2">
  <advance width="702"/>
  <unicode hex="2148"/>
  <outline>
    <contour>
      <point x="-33" y="0" type="line"/>
      <point x="322" y="0" type="line"/>
      <point x="555" y="1098" type="line"/>
      <point x="199" y="1098" type="line"/>
    </contour>
    <contour>
      <point x="96" y="100" type="line"/>
      <point x="285" y="989" type="line"/>
      <point x="422" y="989" type="line"/>
      <point x="233" y="100" type="line"/>
    </contour>
    <contour>
      <point x="410" y="1212" type="curve" smooth="yes"/>
      <point x="506" y="1212"/>
      <point x="602" y="1290"/>
      <point x="602" y="1430" type="curve" smooth="yes"/>
      <point x="602" y="1524"/>
      <point x="553" y="1575"/>
      <point x="446" y="1575" type="curve" smooth="yes"/>
      <point x="317" y="1575"/>
      <point x="248" y="1481"/>
      <point x="248" y="1366" type="curve" smooth="yes"/>
      <point x="248" y="1264"/>
      <point x="315" y="1212"/>
    </contour>
    <contour>
      <point x="418" y="1315" type="curve" smooth="yes"/>
      <point x="379" y="1315"/>
      <point x="350" y="1339"/>
      <point x="350" y="1382" type="curve" smooth="yes"/>
      <point x="350" y="1430"/>
      <point x="379" y="1473"/>
      <point x="434" y="1473" type="curve" smooth="yes"/>
      <point x="479" y="1473"/>
      <point x="500" y="1448"/>
      <point x="500" y="1409" type="curve" smooth="yes"/>
      <point x="500" y="1350"/>
      <point x="459" y="1315"/>
    </contour>
  </outline>
</glyph>
<glyph name="partialdiff" format="2">
  <advance width="1081"/>
  <unicode hex="2202"/>
  <outline>
    <contour>
      <point x="426" y="-20" type="curve" smooth="yes"/>
      <point x="831" y="-20"/>
      <point x="1036" y="463"/>
      <point x="1036" y="918" type="curve" smooth="yes"/>
      <point x="1036" y="1266"/>
      <point x="903" y="1483"/>
      <point x="606" y="1483" type="curve" smooth="yes"/>
      <point x="506" y="1483"/>
      <point x="395" y="1468"/>
      <point x="301" y="1419" type="curve"/>
      <point x="301" y="1190" type="line"/>
      <point x="369" y="1237"/>
      <point x="469" y="1264"/>
      <point x="561" y="1264" type="curve" smooth="yes"/>
      <point x="700" y="1264"/>
      <point x="774" y="1171"/>
      <point x="780" y="991" type="curve" smooth="yes"/>
      <point x="780" y="969"/>
      <point x="778" y="944"/>
      <point x="778" y="924" type="curve"/>
      <point x="721" y="989"/>
      <point x="643" y="1026"/>
      <point x="547" y="1026" type="curve" smooth="yes"/>
      <point x="266" y="1026"/>
      <point x="43" y="770"/>
      <point x="43" y="393" type="curve" smooth="yes"/>
      <point x="43" y="127"/>
      <point x="178" y="-20"/>
    </contour>
    <contour>
      <point x="442" y="199" type="curve" smooth="yes"/>
      <point x="324" y="199"/>
      <point x="303" y="317"/>
      <point x="305" y="410" type="curve" smooth="yes"/>
      <point x="313" y="612"/>
      <point x="428" y="813"/>
      <point x="575" y="813" type="curve" smooth="yes"/>
      <point x="655" y="813"/>
      <point x="723" y="770"/>
      <point x="752" y="694" type="curve"/>
      <point x="698" y="383"/>
      <point x="582" y="199"/>
    </contour>
  </outline>
</glyph>
<glyph name="integral" format="2">
  <advance width="782"/>
  <unicode hex="222B"/>
  <outline>
    <contour>
      <point x="201" y="-492" type="curve" smooth="yes"/>
      <point x="416" y="-492"/>
      <point x="524" y="-371"/>
      <point x="524" y="-109" type="curve" smooth="yes"/>
      <point x="524" y="1169" type="line" smooth="yes"/>
      <point x="524" y="1274"/>
      <point x="553" y="1317"/>
      <point x="623" y="1319" type="curve" smooth="yes"/>
      <point x="653" y="1319"/>
      <point x="709" y="1303"/>
      <point x="770" y="1276" type="curve"/>
      <point x="770" y="1516" type="line"/>
      <point x="713" y="1544"/>
      <point x="651" y="1561"/>
      <point x="584" y="1561" type="curve" smooth="yes"/>
      <point x="373" y="1561"/>
      <point x="258" y="1440"/>
      <point x="258" y="1194" type="curve" smooth="yes"/>
      <point x="258" y="-86" type="line" smooth="yes"/>
      <point x="258" y="-207"/>
      <point x="229" y="-248"/>
      <point x="158" y="-250" type="curve" smooth="yes"/>
      <point x="123" y="-250"/>
      <point x="76" y="-236"/>
      <point x="20" y="-209" type="curve"/>
      <point x="20" y="-446" type="line"/>
      <point x="74" y="-477"/>
      <point x="133" y="-492"/>
    </contour>
  </outline>
</glyph>
<glyph name="uni2C72" format="2">
  <advance width="1499"/>
  <unicode hex="2C72"/>
  <anchor x="614" y="0" name="bottom"/>
  <anchor x="924" y="1462" name="top"/>
  <outline>
    <contour>
      <point x="139" y="0" type="line"/>
      <point x="430" y="0" type="line"/>
      <point x="713" y="731" type="line" smooth="yes"/>
      <point x="737" y="793"/>
      <point x="758" y="856"/>
      <point x="778" y="920" type="curve"/>
      <point x="782" y="920" type="line"/>
      <point x="776" y="846"/>
      <point x="770" y="772"/>
      <point x="770" y="713" type="curve" smooth="yes"/>
      <point x="748" y="0" type="line"/>
      <point x="1042" y="0" type="line"/>
      <point x="1507" y="1194" type="line" smooth="yes"/>
      <point x="1526" y="1243"/>
      <point x="1546" y="1268"/>
      <point x="1585" y="1268" type="curve" smooth="yes"/>
      <point x="1612" y="1268"/>
      <point x="1632" y="1260"/>
      <point x="1645" y="1251" type="curve"/>
      <point x="1645" y="1462" type="line"/>
      <point x="1616" y="1475"/>
      <point x="1573" y="1483"/>
      <point x="1536" y="1483" type="curve" smooth="yes"/>
      <point x="1430" y="1483"/>
      <point x="1346" y="1444"/>
      <point x="1298" y="1329" type="curve" smooth="yes"/>
      <point x="1065" y="711" type="line" smooth="yes"/>
      <point x="1026" y="610"/>
      <point x="995" y="528"/>
      <point x="967" y="438" type="curve"/>
      <point x="963" y="438" type="line"/>
      <point x="969" y="526"/>
      <point x="973" y="600"/>
      <point x="979" y="715" type="curve" smooth="yes"/>
      <point x="1006" y="1462" type="line"/>
      <point x="788" y="1462" type="line"/>
      <point x="487" y="702" type="line" smooth="yes"/>
      <point x="451" y="612"/>
      <point x="418" y="524"/>
      <point x="387" y="436" type="curve"/>
      <point x="383" y="436" type="line"/>
      <point x="391" y="502"/>
      <point x="397" y="590"/>
      <point x="403" y="702" type="curve" smooth="yes"/>
      <point x="432" y="1462" type="line"/>
      <point x="184" y="1462" type="line"/>
    </contour>
  </outline>
</glyph>
<glyph name="uni2C75" format="2">
  <advance width="764"/>
  <unicode hex="2C75"/>
  <anchor x="268" y="0" name="bottom"/>
  <anchor x="578" y="1462" name="top"/>
  <outline>
    <contour>
      <point x="-4" y="0" type="line"/>
      <point x="252" y="0" type="line"/>
      <point x="389" y="649" type="line"/>
      <point x="733" y="649" type="line"/>
      <point x="782" y="877" type="line"/>
      <point x="436" y="877" type="line"/>
      <point x="561" y="1462" type="line"/>
      <point x="305" y="1462" type="line"/>
    </contour>
  </outline>
</glyph>
<glyph name="turnedrtail" format="2">
  <advance width="645"/>
  <unicode hex="2C79"/>
  <anchor x="209" y="0" name="bottom"/>
  <anchor x="541" y="1567" name="top"/>
  <outline>
    <contour>
      <point x="-14" y="-20" type="curve" smooth="yes"/>
      <point x="96" y="-20"/>
      <point x="168" y="39"/>
      <point x="236" y="172" type="curve"/>
      <point x="244" y="172" type="line"/>
      <point x="229" y="0" type="line"/>
      <point x="422" y="0" type="line"/>
      <point x="678" y="1210" type="line" smooth="yes"/>
      <point x="694" y="1288"/>
      <point x="702" y="1335"/>
      <point x="702" y="1378" type="curve" smooth="yes"/>
      <point x="702" y="1483"/>
      <point x="627" y="1567"/>
      <point x="483" y="1567" type="curve" smooth="yes"/>
      <point x="420" y="1567"/>
      <point x="358" y="1556"/>
      <point x="324" y="1546" type="curve"/>
      <point x="324" y="1335" type="line"/>
      <point x="342" y="1346"/>
      <point x="371" y="1352"/>
      <point x="391" y="1352" type="curve" smooth="yes"/>
      <point x="422" y="1352"/>
      <point x="449" y="1339"/>
      <point x="449" y="1300" type="curve" smooth="yes"/>
      <point x="449" y="1276"/>
      <point x="442" y="1243"/>
      <point x="434" y="1214" type="curve" smooth="yes"/>
      <point x="293" y="545" type="line" smooth="yes"/>
      <point x="260" y="395"/>
      <point x="190" y="244"/>
      <point x="63" y="244" type="curve" smooth="yes"/>
      <point x="31" y="244"/>
      <point x="2" y="250"/>
      <point x="-25" y="260" type="curve"/>
      <point x="-100" y="-6" type="line"/>
      <point x="-68" y="-18"/>
      <point x="-43" y="-20"/>
    </contour>
  </outline>
</glyph>
<glyph name="leftdottedsubstitutionbracket" format="2">
  <advance width="1024"/>
  <unicode hex="2E04"/>
  <outline>
    <contour>
      <point x="246" y="565" type="line"/>
      <point x="387" y="565" type="line"/>
      <point x="387" y="1120" type="line"/>
      <point x="737" y="1343" type="line"/>
      <point x="659" y="1462" type="line"/>
      <point x="246" y="1198" type="line"/>
    </contour>
    <contour>
      <point x="668" y="819" type="curve" smooth="yes"/>
      <point x="727" y="819"/>
      <point x="772" y="854"/>
      <point x="772" y="932" type="curve" smooth="yes"/>
      <point x="772" y="1010"/>
      <point x="727" y="1044"/>
      <point x="668" y="1044" type="curve" smooth="yes"/>
      <point x="612" y="1044"/>
      <point x="565" y="1010"/>
      <point x="565" y="932" type="curve" smooth="yes"/>
      <point x="565" y="854"/>
      <point x="612" y="819"/>
    </contour>
  </outline>
</glyph>
<glyph name="rightverticalbarwithquill" format="2">
  <advance width="1128"/>
  <unicode hex="2E21"/>
  <outline>
    <contour>
      <point x="639" y="-492" type="line"/>
      <point x="807" y="-492" type="line"/>
      <point x="807" y="1556" type="line"/>
      <point x="639" y="1556" type="line"/>
      <point x="639" y="608" type="line"/>
      <point x="344" y="608" type="line"/>
      <point x="344" y="455" type="line"/>
      <point x="639" y="455" type="line"/>
    </contour>
  </outline>
</glyph>
<glyph name="uniA646" format="2">
  <advance width="684"/>
  <unicode hex="A646"/>
  <outline>
    <contour>
      <point x="332" y="-20" type="curve" smooth="yes"/>
      <point x="389" y="-20"/>
      <point x="475" y="-4"/>
      <point x="535" y="31" type="curve"/>
      <point x="535" y="236" type="line"/>
      <point x="502" y="219"/>
      <point x="463" y="207"/>
      <point x="438" y="207" type="curve" smooth="yes"/>
      <point x="408" y="207"/>
      <point x="393" y="227"/>
      <point x="393" y="258" type="curve" smooth="yes"/>
      <point x="393" y="283"/>
      <point x="397" y="303"/>
      <point x="401" y="326" type="curve" smooth="yes"/>
      <point x="602" y="1268" type="line"/>
      <point x="782" y="1327" type="line"/>
      <point x="811" y="1462" type="line"/>
      <point x="221" y="1462" type="line"/>
      <point x="193" y="1327" type="line"/>
      <point x="346" y="1268" type="line"/>
      <point x="150" y="342" type="line" smooth="yes"/>
      <point x="137" y="289"/>
      <point x="129" y="227"/>
      <point x="129" y="184" type="curve" smooth="yes"/>
      <point x="129" y="55"/>
      <point x="201" y="-20"/>
    </contour>
  </outline>
</glyph>
<glyph name="uniA654" format="2">
  <advance width="1475"/>
  <unicode hex="A654"/>
  <outline>
    <contour>
      <point x="418" y="-20" type="curve" smooth="yes"/>
      <point x="686" y="-20"/>
      <point x="874" y="229"/>
      <point x="973" y="647" type="curve"/>
      <point x="1108" y="647" type="line"/>
      <point x="973" y="0" type="line"/>
      <point x="1229" y="0" type="line"/>
      <point x="1538" y="1462" type="line"/>
      <point x="1282" y="1462" type="line"/>
      <point x="1157" y="874" type="line"/>
      <point x="1008" y="874" type="line"/>
      <point x="1016" y="934"/>
      <point x="1020" y="993"/>
      <point x="1020" y="1030" type="curve" smooth="yes"/>
      <point x="1020" y="1341"/>
      <point x="907" y="1485"/>
      <point x="672" y="1485" type="curve" smooth="yes"/>
      <point x="244" y="1485"/>
      <point x="70" y="821"/>
      <point x="70" y="426" type="curve" smooth="yes"/>
      <point x="70" y="113"/>
      <point x="197" y="-20"/>
    </contour>
    <contour>
      <point x="446" y="205" type="curve" smooth="yes"/>
      <point x="375" y="205"/>
      <point x="338" y="272"/>
      <point x="336" y="416" type="curve" smooth="yes"/>
      <point x="336" y="604"/>
      <point x="436" y="1253"/>
      <point x="659" y="1253" type="curve" smooth="yes"/>
      <point x="733" y="1253"/>
      <point x="770" y="1202"/>
      <point x="770" y="1032" type="curve" smooth="yes"/>
      <point x="772" y="768"/>
      <point x="653" y="205"/>
    </contour>
  </outline>
</glyph>
<glyph name="uniA65D" format="2">
  <advance width="1272"/>
  <unicode hex="A65D"/>
  <outline>
    <contour>
      <point x="-14" y="0" type="line"/>
      <point x="231" y="0" type="line"/>
      <point x="326" y="442" type="line"/>
      <point x="512" y="442" type="line"/>
      <point x="313" y="0" type="line"/>
      <point x="1149" y="0" type="line"/>
      <point x="1114" y="1116" type="line"/>
      <point x="813" y="1116" type="line"/>
      <point x="602" y="641" type="line"/>
      <point x="369" y="641" type="line"/>
      <point x="469" y="1116" type="line"/>
      <point x="223" y="1116" type="line"/>
    </contour>
    <contour>
      <point x="641" y="182" type="line"/>
      <point x="743" y="442" type="line"/>
      <point x="907" y="442" type="line"/>
      <point x="903" y="182" type="line"/>
    </contour>
    <contour>
      <point x="813" y="627" type="line"/>
      <point x="864" y="776" type="line" smooth="yes"/>
      <point x="883" y="825"/>
      <point x="899" y="874"/>
      <point x="913" y="924" type="curve"/>
      <point x="926" y="924" type="line"/>
      <point x="920" y="864"/>
      <point x="913" y="768"/>
      <point x="911" y="725" type="curve" smooth="yes"/>
      <point x="907" y="627" type="line"/>
    </contour>
  </outline>
</glyph>
<glyph name="uniA65E" format="2">
  <advance width="1204"/>
  <unicode hex="A65E"/>
  <outline>
    <contour>
      <point x="336" y="-266" type="line"/>
      <point x="584" y="-266" type="line"/>
      <point x="836" y="932" type="line"/>
      <point x="846" y="932" type="line"/>
      <point x="834" y="823"/>
      <point x="829" y="741"/>
      <point x="827" y="653" type="curve" smooth="yes"/>
      <point x="819" y="0" type="line"/>
      <point x="1081" y="0" type="line"/>
      <point x="1001" y="1462" type="line"/>
      <point x="637" y="1462" type="line"/>
      <point x="113" y="395" type="line" smooth="yes"/>
      <point x="47" y="262"/>
      <point x="18" y="213"/>
      <point x="-31" y="213" type="curve" smooth="yes"/>
      <point x="-43" y="213"/>
      <point x="-72" y="215"/>
      <point x="-92" y="227" type="curve"/>
      <point x="-92" y="12" type="line"/>
      <point x="-57" y="-8"/>
      <point x="-23" y="-12"/>
      <point x="18" y="-12" type="curve" smooth="yes"/>
      <point x="197" y="-12"/>
      <point x="264" y="145"/>
      <point x="354" y="356" type="curve" smooth="yes"/>
      <point x="487" y="676" type="line" smooth="yes"/>
      <point x="512" y="741"/>
      <point x="557" y="854"/>
      <point x="578" y="932" type="curve"/>
      <point x="590" y="932" type="line"/>
    </contour>
  </outline>
</glyph>
<glyph name="uniA673" format="2">
  <advance width="1120"/>
  <unicode hex="A673"/>
  <outline>
    <contour>
      <point x="655" y="584" type="line"/>
      <point x="793" y="823" type="line"/>
      <point x="1077" y="823" type="line"/>
      <point x="934" y="1069" type="line"/>
      <point x="1077" y="1317" type="line"/>
      <point x="793" y="1317" type="line"/>
      <point x="655" y="1556" type="line"/>
      <point x="516" y="1317" type="line"/>
      <point x="231" y="1317" type="line"/>
      <point x="373" y="1069" type="line"/>
      <point x="231" y="823" type="line"/>
      <point x="516" y="823" type="line"/>
    </contour>
    <contour>
      <point x="655" y="745" type="line"/>
      <point x="563" y="905" type="line"/>
      <point x="373" y="905" type="line"/>
      <point x="467" y="1069" type="line"/>
      <point x="373" y="1235" type="line"/>
      <point x="563" y="1235" type="line"/>
      <point x="655" y="1395" type="line"/>
      <point x="748" y="1235" type="line"/>
      <point x="936" y="1235" type="line"/>
      <point x="842" y="1069" type="line"/>
      <point x="936" y="905" type="line"/>
      <point x="748" y="905" type="line"/>
    </contour>
  </outline>
</glyph>
<glyph name="uniA682" format="2">
  <advance width="862"/>
  <unicode hex="A682"/>
  <outline>
    <contour>
      <point x="209" y="-492" type="curve" smooth="yes"/>
      <point x="516" y="-492"/>
      <point x="692" y="-240"/>
      <point x="692" y="106" type="curve" smooth="yes"/>
      <point x="692" y="326"/>
      <point x="623" y="463"/>
      <point x="522" y="604" type="curve" smooth="yes"/>
      <point x="440" y="721"/>
      <point x="408" y="817"/>
      <point x="408" y="952" type="curve" smooth="yes"/>
      <point x="408" y="1114"/>
      <point x="481" y="1245"/>
      <point x="616" y="1245" type="curve" smooth="yes"/>
      <point x="678" y="1245"/>
      <point x="748" y="1217"/>
      <point x="817" y="1143" type="curve"/>
      <point x="932" y="1370" type="line"/>
      <point x="848" y="1438"/>
      <point x="733" y="1483"/>
      <point x="610" y="1483" type="curve" smooth="yes"/>
      <point x="324" y="1483"/>
      <point x="139" y="1257"/>
      <point x="139" y="909" type="curve" smooth="yes"/>
      <point x="139" y="692"/>
      <point x="211" y="565"/>
      <point x="311" y="418" type="curve" smooth="yes"/>
      <point x="391" y="299"/>
      <point x="424" y="207"/>
      <point x="424" y="72" type="curve" smooth="yes"/>
      <point x="424" y="-104"/>
      <point x="358" y="-250"/>
      <point x="197" y="-250" type="curve" smooth="yes"/>
      <point x="98" y="-250"/>
      <point x="0" y="-199"/>
      <point x="-66" y="-125" type="curve"/>
      <point x="-121" y="-395" type="line"/>
      <point x="-53" y="-457"/>
      <point x="59" y="-492"/>
    </contour>
  </outline>
</glyph>
<glyph name="uniA691" format="2">
  <advance width="770"/>
  <unicode hex="A691"/>
  <outline>
    <contour>
      <point x="127" y="0" type="line"/>
      <point x="373" y="0" type="line"/>
      <point x="565" y="907" type="line"/>
      <point x="801" y="907" type="line"/>
      <point x="844" y="1116" type="line"/>
      <point x="125" y="1116" type="line"/>
      <point x="82" y="907" type="line"/>
      <point x="319" y="907" type="line"/>
    </contour>
    <contour>
      <point x="133" y="-426" type="curve" smooth="yes"/>
      <point x="172" y="-426"/>
      <point x="207" y="-422"/>
      <point x="238" y="-418" type="curve"/>
      <point x="272" y="-244" type="line"/>
      <point x="252" y="-250"/>
      <point x="227" y="-252"/>
      <point x="207" y="-252" type="curve" smooth="yes"/>
      <point x="166" y="-252"/>
      <point x="139" y="-227"/>
      <point x="139" y="-182" type="curve" smooth="yes"/>
      <point x="139" y="-88"/>
      <point x="201" y="-6"/>
      <point x="324" y="0" type="curve"/>
      <point x="201" y="94" type="line"/>
      <point x="29" y="53"/>
      <point x="-72" y="-74"/>
      <point x="-72" y="-217" type="curve" smooth="yes"/>
      <point x="-72" y="-367"/>
      <point x="16" y="-426"/>
    </contour>
  </outline>
</glyph>
<glyph name="uniA722" format="2">
  <advance width="774"/>
  <unicode hex="A722"/>
  <outline>
    <contour>
      <point x="238" y="831" type="line"/>
      <point x="279" y="831" type="line" smooth="yes"/>
      <point x="588" y="831"/>
      <point x="760" y="981"/>
      <point x="760" y="1188" type="curve" smooth="yes"/>
      <point x="760" y="1378"/>
      <point x="653" y="1462"/>
      <point x="449" y="1462" type="curve" smooth="yes"/>
      <point x="301" y="1462" type="line"/>
      <point x="260" y="1276" type="line"/>
      <point x="381" y="1276" type="line" smooth="yes"/>
      <point x="494" y="1276"/>
      <point x="553" y="1237"/>
      <point x="553" y="1151" type="curve" smooth="yes"/>
      <point x="553" y="1016"/>
      <point x="446" y="936"/>
      <point x="297" y="936" type="curve" smooth="yes"/>
      <point x="258" y="936" type="line"/>
    </contour>
    <contour>
      <point x="27" y="0" type="line"/>
      <point x="72" y="0" type="line" smooth="yes"/>
      <point x="367" y="0"/>
      <point x="510" y="137"/>
      <point x="510" y="342" type="curve" smooth="yes"/>
      <point x="510" y="512"/>
      <point x="420" y="598"/>
      <point x="225" y="598" type="curve" smooth="yes"/>
      <point x="123" y="598" type="line"/>
      <point x="84" y="412" type="line"/>
      <point x="168" y="412" type="line" smooth="yes"/>
      <point x="274" y="412"/>
      <point x="324" y="371"/>
      <point x="324" y="301" type="curve" smooth="yes"/>
      <point x="324" y="172"/>
      <point x="233" y="104"/>
      <point x="80" y="104" type="curve" smooth="yes"/>
      <point x="49" y="104" type="line"/>
    </contour>
  </outline>
</glyph>
<glyph name="uniA735" format="2">
  <advance width="1421"/>
  <unicode hex="A735"/>
  <anchor x="592" y="-6" name="bottom"/>
  <anchor x="817" y="1116" name="top"/>
  <outline>
    <contour>
      <point x="264" y="-20" type="curve" smooth="yes"/>
      <point x="367" y="-20"/>
      <point x="434" y="47"/>
      <point x="506" y="145" type="curve"/>
      <point x="512" y="145" type="line"/>
      <point x="510" y="0" type="line"/>
      <point x="653" y="0" type="line"/>
      <point x="674" y="100" type="line"/>
      <point x="717" y="23"/>
      <point x="784" y="-20"/>
      <point x="864" y="-20" type="curve" smooth="yes"/>
      <point x="1225" y="-20"/>
      <point x="1378" y="444"/>
      <point x="1378" y="772" type="curve" smooth="yes"/>
      <point x="1378" y="997"/>
      <point x="1264" y="1137"/>
      <point x="1085" y="1137" type="curve" smooth="yes"/>
      <point x="1006" y="1137"/>
      <point x="936" y="1102"/>
      <point x="872" y="1028" type="curve"/>
      <point x="891" y="1116" type="line"/>
      <point x="733" y="1116" type="line"/>
      <point x="684" y="979" type="line"/>
      <point x="678" y="979" type="line"/>
      <point x="643" y="1090"/>
      <point x="573" y="1137"/>
      <point x="483" y="1137" type="curve" smooth="yes"/>
      <point x="176" y="1137"/>
      <point x="39" y="602"/>
      <point x="39" y="303" type="curve" smooth="yes"/>
      <point x="39" y="100"/>
      <point x="123" y="-20"/>
    </contour>
    <contour>
      <point x="367" y="188" type="curve" smooth="yes"/>
      <point x="317" y="188"/>
      <point x="293" y="238"/>
      <point x="293" y="336" type="curve" smooth="yes"/>
      <point x="293" y="530"/>
      <point x="385" y="922"/>
      <point x="528" y="922" type="curve" smooth="yes"/>
      <point x="584" y="922"/>
      <point x="614" y="874"/>
      <point x="614" y="786" type="curve" smooth="yes"/>
      <point x="614" y="709"/>
      <point x="600" y="606"/>
      <point x="575" y="510" type="curve" smooth="yes"/>
      <point x="535" y="344"/>
      <point x="463" y="188"/>
    </contour>
    <contour>
      <point x="891" y="188" type="curve" smooth="yes"/>
      <point x="829" y="188"/>
      <point x="801" y="242"/>
      <point x="801" y="334" type="curve" smooth="yes"/>
      <point x="801" y="512"/>
      <point x="879" y="928"/>
      <point x="1038" y="928" type="curve" smooth="yes"/>
      <point x="1100" y="928"/>
      <point x="1128" y="874"/>
      <point x="1128" y="772" type="curve" smooth="yes"/>
      <point x="1128" y="565"/>
      <point x="1036" y="188"/>
    </contour>
  </outline>
</glyph>
<glyph name="uniA773" format="2">
  <advance width="1739"/>
  <unicode hex="A773"/>
  <outline>
    <contour>
      <point x="1051" y="-322" type="line"/>
      <point x="1227" y="-322" type="line"/>
      <point x="1686" y="541" type="line"/>
      <point x="1509" y="541" type="line"/>
    </contour>
    <contour>
      <point x="1126" y="0" type="line"/>
      <point x="1616" y="0" type="line"/>
      <point x="1659" y="209" type="line"/>
      <point x="1169" y="209" type="line"/>
    </contour>
    <component base="m"/>
  </outline>
</glyph>
<glyph name="uniA795" format="2">
  <advance width="969"/>
  <unicode hex="A795"/>
  <anchor x="350" y="0" name="bottom"/>
  <anchor x="680" y="1556" name="top"/>
  <outline>
    <contour>
      <point x="518" y="-436" type="curve" smooth="yes"/>
      <point x="662" y="-436"/>
      <point x="729" y="-362"/>
      <point x="762" y="-205" type="curve" smooth="yes"/>
      <point x="852" y="215" type="line"/>
      <point x="743" y="215" type="line"/>
      <point x="573" y="57" type="line"/>
      <point x="537" y="-129" type="line" smooth="yes"/>
      <point x="522" y="-197"/>
      <point x="498" y="-221"/>
      <point x="453" y="-221" type="curve" smooth="yes"/>
      <point x="428" y="-221"/>
      <point x="403" y="-213"/>
      <point x="387" y="-203" type="curve"/>
      <point x="387" y="-414" type="line"/>
      <point x="418" y="-426"/>
      <point x="467" y="-436"/>
    </contour>
    <component base="h"/>
  </outline>
</glyph>
<glyph name="uniA79A" format="2">
  <advance width="1092"/>
  <unicode hex="A79A"/>
  <outline>
    <contour>
      <point x="369" y="-20" type="curve" smooth="yes"/>
      <point x="477" y="-20"/>
      <point x="563" y="31"/>
      <point x="635" y="111" type="curve"/>
      <point x="643" y="111" type="line"/>
      <point x="637" y="0" type="line"/>
      <point x="846" y="0" type="line"/>
      <point x="1155" y="1462" type="line"/>
      <point x="948" y="1462" type="line"/>
      <point x="903" y="1343" type="line"/>
      <point x="895" y="1343" type="line"/>
      <point x="852" y="1432"/>
      <point x="774" y="1485"/>
      <point x="641" y="1485" type="curve" smooth="yes"/>
      <point x="377" y="1485"/>
      <point x="213" y="1270"/>
      <point x="213" y="1051" type="curve" smooth="yes"/>
      <point x="213" y="899"/>
      <point x="270" y="809"/>
      <point x="379" y="772" type="curve"/>
      <point x="379" y="764" type="line"/>
      <point x="160" y="727"/>
      <point x="25" y="569"/>
      <point x="25" y="334" type="curve" smooth="yes"/>
      <point x="25" y="92"/>
      <point x="160" y="-20"/>
    </contour>
    <contour>
      <point x="453" y="207" type="curve" smooth="yes"/>
      <point x="354" y="207"/>
      <point x="295" y="256"/>
      <point x="295" y="365" type="curve" smooth="yes"/>
      <point x="295" y="530"/>
      <point x="393" y="649"/>
      <point x="559" y="649" type="curve" smooth="yes"/>
      <point x="600" y="649" type="line"/>
      <point x="647" y="872" type="line"/>
      <point x="614" y="872" type="line" smooth="yes"/>
      <point x="520" y="872"/>
      <point x="465" y="915"/>
      <point x="465" y="1034" type="curve" smooth="yes"/>
      <point x="465" y="1151"/>
      <point x="543" y="1257"/>
      <point x="655" y="1257" type="curve" smooth="yes"/>
      <point x="754" y="1257"/>
      <point x="805" y="1186"/>
      <point x="805" y="1096" type="curve" smooth="yes"/>
      <point x="805" y="1040"/>
      <point x="797" y="983"/>
      <point x="784" y="922" type="curve" smooth="yes"/>
      <point x="696" y="500" type="line" smooth="yes"/>
      <point x="664" y="340"/>
      <point x="565" y="207"/>
    </contour>
  </outline>
</glyph>
<glyph name="uniA7AC" format="2">
  <advance width="1130"/>
  <unicode hex="A7AC"/>
  <outline>
    <contour>
      <point x="338" y="-492" type="curve" smooth="yes"/>
      <point x="678" y="-492"/>
      <point x="817" y="-326"/>
      <point x="881" y="-23" type="curve" smooth="yes"/>
      <point x="1196" y="1462" type="line"/>
      <point x="965" y="1462" type="line"/>
      <point x="905" y="1294" type="line"/>
      <point x="899" y="1294" type="line"/>
      <point x="856" y="1419"/>
      <point x="780" y="1485"/>
      <point x="649" y="1485" type="curve" smooth="yes"/>
      <point x="289" y="1485"/>
      <point x="94" y="1004"/>
      <point x="94" y="532" type="curve" smooth="yes"/>
      <point x="94" y="215"/>
      <point x="188" y="70"/>
      <point x="389" y="70" type="curve" smooth="yes"/>
      <point x="537" y="70"/>
      <point x="625" y="150"/>
      <point x="694" y="283" type="curve"/>
      <point x="700" y="283" type="line"/>
      <point x="684" y="229"/>
      <point x="664" y="168"/>
      <point x="651" y="111" type="curve" smooth="yes"/>
      <point x="625" y="-23" type="line" smooth="yes"/>
      <point x="594" y="-178"/>
      <point x="500" y="-250"/>
      <point x="340" y="-250" type="curve" smooth="yes"/>
      <point x="209" y="-250"/>
      <point x="98" y="-209"/>
      <point x="23" y="-150" type="curve"/>
      <point x="23" y="-412" type="line"/>
      <point x="82" y="-455"/>
      <point x="209" y="-492"/>
    </contour>
    <contour>
      <point x="487" y="299" type="curve" smooth="yes"/>
      <point x="403" y="299"/>
      <point x="360" y="358"/>
      <point x="360" y="530" type="curve" smooth="yes"/>
      <point x="360" y="836"/>
      <point x="481" y="1257"/>
      <point x="698" y="1257" type="curve" smooth="yes"/>
      <point x="782" y="1257"/>
      <point x="834" y="1192"/>
      <point x="834" y="1057" type="curve" smooth="yes"/>
      <point x="834" y="815"/>
      <point x="725" y="299"/>
    </contour>
  </outline>
</glyph>
<glyph name="uniA7F7" format="2">
  <advance width="1440"/>
  <unicode hex="A7F7"/>
  <outline>
    <contour>
      <point x="137" y="891" type="line"/>
      <point x="84" y="639" type="line"/>
      <point x="1386" y="639" type="line"/>
      <point x="1442" y="891" type="line"/>
    </contour>
  </outline>
</glyph>
<glyph name="uniAB34" format="2">
  <advance width="1253"/>
  <unicode hex="AB34"/>
  <outline>
    <contour>
      <point x="207" y="117" type="curve" smooth="yes"/>
      <point x="248" y="117"/>
      <point x="309" y="131"/>
      <point x="338" y="141" type="curve"/>
      <point x="342" y="295" type="line"/>
      <point x="324" y="287"/>
      <point x="297" y="281"/>
      <point x="266" y="281" type="curve" smooth="yes"/>
      <point x="211" y="281"/>
      <point x="178" y="311"/>
      <point x="178" y="371" type="curve" smooth="yes"/>
      <point x="178" y="438"/>
      <point x="219" y="496"/>
      <point x="311" y="496" type="curve" smooth="yes"/>
      <point x="389" y="496"/>
      <point x="446" y="481"/>
      <point x="512" y="481" type="curve" smooth="yes"/>
      <point x="547" y="481" type="line"/>
      <point x="586" y="653" type="line"/>
      <point x="549" y="653" type="line" smooth="yes"/>
      <point x="479" y="653"/>
      <point x="412" y="670"/>
      <point x="289" y="670" type="curve" smooth="yes"/>
      <point x="100" y="670"/>
      <point x="-16" y="524"/>
      <point x="-16" y="350" type="curve" smooth="yes"/>
      <point x="-16" y="201"/>
      <point x="63" y="117"/>
    </contour>
    <component base="e" xOffset="389"/>
  </outline>
</glyph>
<glyph name="uniAB3A" format="2">
  <advance width="1581"/>
  <unicode hex="AB3A"/>
  <outline>
    <contour>
      <point x="-14" y="0" type="line"/>
      <point x="233" y="0" type="line"/>
      <point x="360" y="598" type="line" smooth="yes"/>
      <point x="393" y="748"/>
      <point x="461" y="913"/>
      <point x="616" y="913" type="curve" smooth="yes"/>
      <point x="680" y="913"/>
      <point x="713" y="885"/>
      <point x="717" y="825" type="curve" smooth="yes"/>
      <point x="721" y="793"/>
      <point x="715" y="741"/>
      <point x="705" y="688" type="curve" smooth="yes"/>
      <point x="553" y="0" type="line"/>
      <point x="801" y="0" type="line"/>
      <point x="940" y="653" type="line" smooth="yes"/>
      <point x="965" y="772"/>
      <point x="1028" y="913"/>
      <point x="1176" y="913" type="curve" smooth="yes"/>
      <point x="1241" y="913"/>
      <point x="1274" y="885"/>
      <point x="1280" y="823" type="curve" smooth="yes"/>
      <point x="1282" y="788"/>
      <point x="1278" y="735"/>
      <point x="1266" y="680" type="curve" smooth="yes"/>
      <point x="1206" y="408" type="line"/>
      <point x="1454" y="408" type="line"/>
      <point x="1524" y="743" type="line" smooth="yes"/>
      <point x="1536" y="803"/>
      <point x="1544" y="862"/>
      <point x="1542" y="907" type="curve" smooth="yes"/>
      <point x="1536" y="1055"/>
      <point x="1430" y="1137"/>
      <point x="1276" y="1137" type="curve" smooth="yes"/>
      <point x="1161" y="1137"/>
      <point x="1042" y="1083"/>
      <point x="973" y="995" type="curve"/>
      <point x="965" y="995" type="line"/>
      <point x="928" y="1092"/>
      <point x="838" y="1137"/>
      <point x="709" y="1137" type="curve" smooth="yes"/>
      <point x="594" y="1137"/>
      <point x="494" y="1077"/>
      <point x="416" y="981" type="curve"/>
      <point x="408" y="981" type="line"/>
      <point x="422" y="1116" type="line"/>
      <point x="223" y="1116" type="line"/>
    </contour>
    <contour>
      <point x="1096" y="131" type="curve" smooth="yes"/>
      <point x="1067" y="131"/>
      <point x="1051" y="150"/>
      <point x="1051" y="184" type="curve" smooth="yes"/>
      <point x="1051" y="266"/>
      <point x="1106" y="332"/>
      <point x="1190" y="334" type="curve"/>
      <point x="1180" y="276" type="line" smooth="yes"/>
      <point x="1155" y="170"/>
      <point x="1133" y="131"/>
    </contour>
    <contour>
      <point x="1149" y="-20" type="curve" smooth="yes"/>
      <point x="1280" y="-20"/>
      <point x="1386" y="86"/>
      <point x="1440" y="334" type="curve"/>
      <point x="1470" y="332"/>
      <point x="1503" y="326"/>
      <point x="1538" y="317" type="curve"/>
      <point x="1593" y="465" type="line"/>
      <point x="1509" y="483"/>
      <point x="1423" y="492"/>
      <point x="1321" y="492" type="curve" smooth="yes"/>
      <point x="1083" y="492"/>
      <point x="924" y="356"/>
      <point x="924" y="180" type="curve" smooth="yes"/>
      <point x="924" y="41"/>
      <point x="989" y="-20"/>
    </contour>
  </outline>
</glyph>
<glyph name="uniAB4B" format="2">
  <advance width="698"/>
  <unicode hex="AB4B"/>
  <outline>
    <contour>
      <point x="219" y="0" type="line"/>
      <point x="465" y="0" type="line"/>
      <point x="707" y="1135" type="line"/>
      <point x="592" y="1098"/>
      <point x="479" y="1081"/>
      <point x="373" y="1081" type="curve" smooth="yes"/>
      <point x="295" y="1081"/>
      <point x="197" y="1100"/>
      <point x="100" y="1135" type="curve"/>
      <point x="59" y="944" type="line"/>
      <point x="139" y="911"/>
      <point x="229" y="897"/>
      <point x="307" y="897" type="curve" smooth="yes"/>
      <point x="356" y="897"/>
      <point x="393" y="903"/>
      <point x="412" y="911" type="curve"/>
    </contour>
  </outline>
</glyph>
<glyph name="uniAB54" format="2">
  <advance width="944"/>
  <unicode hex="AB54"/>
  <outline>
    <contour>
      <point x="-252" y="-492" type="line"/>
      <point x="10" y="-492" type="line"/>
      <point x="281" y="41" type="line"/>
      <point x="283" y="-176" type="line" smooth="yes"/>
      <point x="297" y="-395"/>
      <point x="389" y="-494"/>
      <point x="602" y="-494" type="curve" smooth="yes"/>
      <point x="745" y="-494"/>
      <point x="848" y="-397"/>
      <point x="850" y="-260" type="curve" smooth="yes"/>
      <point x="850" y="-127"/>
      <point x="764" y="-37"/>
      <point x="633" y="-37" type="curve" smooth="yes"/>
      <point x="586" y="-37"/>
      <point x="543" y="-47"/>
      <point x="508" y="-70" type="curve"/>
      <point x="494" y="336" type="line"/>
      <point x="938" y="1116" type="line"/>
      <point x="674" y="1116" type="line"/>
      <point x="471" y="715" type="line"/>
      <point x="471" y="879" type="line" smooth="yes"/>
      <point x="461" y="1038"/>
      <point x="403" y="1133"/>
      <point x="258" y="1133" type="curve" smooth="yes"/>
      <point x="213" y="1133"/>
      <point x="152" y="1126"/>
      <point x="117" y="1116" type="curve"/>
      <point x="86" y="901" type="line"/>
      <point x="111" y="909"/>
      <point x="139" y="918"/>
      <point x="166" y="918" type="curve" smooth="yes"/>
      <point x="213" y="918"/>
      <point x="229" y="879"/>
      <point x="231" y="803" type="curve" smooth="yes"/>
      <point x="248" y="375" type="line"/>
    </contour>
    <contour>
      <point x="610" y="-367" type="curve" smooth="yes"/>
      <point x="543" y="-367"/>
      <point x="514" y="-326"/>
      <point x="514" y="-264" type="curve" smooth="yes"/>
      <point x="516" y="-207"/>
      <point x="561" y="-162"/>
      <point x="623" y="-162" type="curve" smooth="yes"/>
      <point x="684" y="-162"/>
      <point x="719" y="-207"/>
      <point x="719" y="-264" type="curve" smooth="yes"/>
      <point x="717" y="-326"/>
      <point x="670" y="-367"/>
    </contour>
  </outline>
</glyph>
<glyph name="ItaliciDoubleStruckdotless" format="2">
  <advance width="702"/>
  <anchor x="143" y="0" name="bottom"/>
  <anchor x="375" y="1098" name="top"/>
  <outline>
    <contour>
      <point x="-33" y="0" type="line"/>
      <point x="322" y="0" type="line"/>
      <point x="555" y="1098" type="line"/>
      <point x="199" y="1098" type="line"/>
    </contour>
    <contour>
      <point x="96" y="100" type="line"/>
      <point x="285" y="989" type="line"/>
      <point x="422" y="989" type="line"/>
      <point x="233" y="100" type="line"/>
    </contour>
  </outline>
</glyph>
<glyph name="ae.sc" format="2">
  <advance width="1116"/>
  <anchor x="432" y="0" name="bottom"/>
  <anchor x="684" y="1188" name="top"/>
  <outline>
    <contour>
      <point x="-127" y="0" type="line"/>
      <point x="137" y="0" type="line"/>
      <point x="264" y="266" type="line"/>
      <point x="455" y="266" type="line"/>
      <point x="397" y="0" type="line"/>
      <point x="915" y="0" type="line"/>
      <point x="963" y="213" type="line"/>
      <point x="686" y="213" type="line"/>
      <point x="752" y="510" type="line"/>
      <point x="1006" y="510" type="line"/>
      <point x="1053" y="721" type="line"/>
      <point x="797" y="721" type="line"/>
      <point x="852" y="977" type="line"/>
      <point x="1128" y="977" type="line"/>
      <point x="1171" y="1188" type="line"/>
      <point x="461" y="1188" type="line"/>
    </contour>
    <contour>
      <point x="362" y="479" type="line"/>
      <point x="592" y="977" type="line"/>
      <point x="610" y="977" type="line"/>
      <point x="502" y="479" type="line"/>
    </contour>
  </outline>
</glyph>
<glyph name="eth.sc" format="2">
  <advance width="928"/>
  <anchor x="338" y="0" name="bottom"/>
  <anchor x="590" y="1188" name="top"/>
  <outline>
    <contour>
      <point x="-4" y="0" type="line"/>
      <point x="281" y="0" type="line" smooth="yes"/>
      <point x="698" y="0"/>
      <point x="883" y="442"/>
      <point x="883" y="815" type="curve" smooth="yes"/>
      <point x="883" y="1051"/>
      <point x="752" y="1188"/>
      <point x="508" y="1188" type="curve" smooth="yes"/>
      <point x="252" y="1188" type="line"/>
      <point x="147" y="709" type="line"/>
      <point x="57" y="709" type="line"/>
      <point x="16" y="524" type="line"/>
      <point x="109" y="524" type="line"/>
    </contour>
    <contour>
      <point x="287" y="217" type="line"/>
      <point x="352" y="524" type="line"/>
      <point x="471" y="524" type="line"/>
      <point x="510" y="709" type="line"/>
      <point x="393" y="709" type="line"/>
      <point x="453" y="973" type="line"/>
      <point x="487" y="973" type="line" smooth="yes"/>
      <point x="578" y="973"/>
      <point x="623" y="915"/>
      <point x="623" y="791" type="curve" smooth="yes"/>
      <point x="623" y="614"/>
      <point x="549" y="217"/>
      <point x="317" y="217" type="curve" smooth="yes"/>
    </contour>
  </outline>
</glyph>
<glyph name="f.sc" format="2">
  <advance width="678"/>
  <anchor x="213" y="0" name="bottom"/>
  <anchor x="467" y="1188" name="top"/>
  <anchor x="764" y="1188" name="topright"/>
  <outline>
    <contour>
      <point x="-6" y="0" type="line"/>
      <point x="242" y="0" type="line"/>
      <point x="342" y="469" type="line"/>
      <point x="594" y="469" type="line"/>
      <point x="641" y="678" type="line"/>
      <point x="387" y="678" type="line"/>
      <point x="453" y="977" type="line"/>
      <point x="727" y="977" type="line"/>
      <point x="770" y="1188" type="line"/>
      <point x="250" y="1188" type="line"/>
    </contour>
  </outline>
</glyph>
<glyph name="i_sc.salt" format="2">
  <advance width="469"/>
  <anchor x="111" y="0" name="bottom"/>
  <anchor x="365" y="1188" name="top"/>
  <anchor x="561" y="1188" name="topright"/>
  <outline>
    <contour>
      <point x="-4" y="0" type="line"/>
      <point x="242" y="0" type="line"/>
      <point x="500" y="1188" type="line"/>
      <point x="252" y="1188" type="line"/>
    </contour>
  </outline>
</glyph>
<glyph name="k.sc" format="2">
  <advance width="846"/>
  <anchor x="297" y="0" name="bottom"/>
  <anchor x="551" y="1188" name="top"/>
  <anchor x="932" y="1188" name="topright"/>
  <outline>
    <contour>
      <point x="-4" y="0" type="line"/>
      <point x="242" y="0" type="line"/>
      <point x="330" y="412" type="line"/>
      <point x="391" y="459" type="line"/>
      <point x="463" y="0" type="line"/>
      <point x="733" y="0" type="line"/>
      <point x="606" y="631" type="line"/>
      <point x="989" y="1188" type="line"/>
      <point x="719" y="1188" type="line"/>
      <point x="457" y="803" type="line"/>
      <point x="436" y="764"/>
      <point x="412" y="723"/>
      <point x="389" y="684" type="curve"/>
      <point x="498" y="1188" type="line"/>
      <point x="252" y="1188" type="line"/>
    </contour>
  </outline>
</glyph>
<glyph name="macrondieresis" format="2">
  <outline>
    <contour>
      <point x="-115" y="1239" type="line"/>
      <point x="420" y="1239" type="line"/>
      <point x="455" y="1405" type="line"/>
      <point x="-80" y="1405" type="line"/>
    </contour>
    <contour>
      <point x="18" y="1524" type="curve" smooth="yes"/>
      <point x="92" y="1524"/>
      <point x="147" y="1591"/>
      <point x="147" y="1677" type="curve" smooth="yes"/>
      <point x="147" y="1726"/>
      <point x="119" y="1755"/>
      <point x="70" y="1755" type="curve" smooth="yes"/>
      <point x="-10" y="1755"/>
      <point x="-66" y="1692"/>
      <point x="-66" y="1604" type="curve" smooth="yes"/>
      <point x="-66" y="1548"/>
      <point x="-39" y="1524"/>
    </contour>
    <contour>
      <point x="369" y="1524" type="curve" smooth="yes"/>
      <point x="440" y="1524"/>
      <point x="496" y="1591"/>
      <point x="496" y="1677" type="curve" smooth="yes"/>
      <point x="496" y="1729"/>
      <point x="467" y="1755"/>
      <point x="418" y="1755" type="curve" smooth="yes"/>
      <point x="338" y="1755"/>
      <point x="283" y="1692"/>
      <point x="283" y="1604" type="curve" smooth="yes"/>
      <point x="283" y="1550"/>
      <point x="311" y="1524"/>
    </contour>
  </outline>
</glyph>
<glyph name="q.sc" format="2">
  <advance width="989"/>
  <anchor x="307" y="-283" name="bottom"/>
  <anchor x="621" y="1188" name="top"/>
  <anchor x="1075" y="1188" name="topright"/>
  <outline>
    <contour>
      <point x="430" y="-283" type="line"/>
      <point x="711" y="-283" type="line"/>
      <point x="600" y="37" type="line"/>
      <point x="844" y="174"/>
      <point x="944" y="563"/>
      <point x="944" y="819" type="curve" smooth="yes"/>
      <point x="944" y="1075"/>
      <point x="846" y="1206"/>
      <point x="616" y="1206" type="curve" smooth="yes"/>
      <point x="262" y="1206"/>
      <point x="70" y="741"/>
      <point x="70" y="375" type="curve" smooth="yes"/>
      <point x="70" y="133"/>
      <point x="154" y="12"/>
      <point x="330" y="-10" type="curve" smooth="yes"/>
      <point x="338" y="-12"/>
      <point x="346" y="-12"/>
      <point x="354" y="-14" type="curve"/>
    </contour>
    <contour>
      <point x="418" y="201" type="curve" smooth="yes"/>
      <point x="358" y="201"/>
      <point x="328" y="238"/>
      <point x="328" y="373" type="curve" smooth="yes"/>
      <point x="328" y="573"/>
      <point x="420" y="993"/>
      <point x="596" y="993" type="curve" smooth="yes"/>
      <point x="655" y="993"/>
      <point x="686" y="940"/>
      <point x="686" y="827" type="curve" smooth="yes"/>
      <point x="686" y="616"/>
      <point x="592" y="201"/>
    </contour>
  </outline>
</glyph>
<glyph name="uni02E5_uni02E7" format="2">
  <advance width="784"/>
  <outline>
    <contour>
      <point x="389" y="0" type="line"/>
      <point x="526" y="0" type="line"/>
      <point x="526" y="1409" type="line"/>
      <point x="389" y="1409" type="line"/>
      <point x="389" y="864" type="line"/>
      <point x="61" y="1409" type="line"/>
      <point x="-53" y="1337" type="line"/>
      <point x="389" y="598" type="line"/>
    </contour>
  </outline>
</glyph>
<glyph name="uni02E6_uni02E6_uni02E8" format="2">
  <advance width="1110"/>
  <outline>
    <contour>
      <point x="717" y="0" type="line"/>
      <point x="852" y="0" type="line"/>
      <point x="852" y="1409" type="line"/>
      <point x="717" y="1409" type="line"/>
      <point x="717" y="604" type="line"/>
      <point x="444" y="1130" type="line"/>
      <point x="61" y="1130" type="line"/>
      <point x="61" y="995" type="line"/>
      <point x="362" y="995" type="line"/>
      <point x="717" y="309" type="line"/>
    </contour>
  </outline>
</glyph>
<glyph name="uni02E7_uni02E6_uni02E8" format="2">
  <advance width="1110"/>
  <outline>
    <contour>
      <point x="717" y="0" type="line"/>
      <point x="852" y="0" type="line"/>
      <point x="852" y="1409" type="line"/>
      <point x="717" y="1409" type="line"/>
      <point x="717" y="561" type="line"/>
      <point x="389" y="1137" type="line"/>
      <point x="-23" y="760" type="line"/>
      <point x="63" y="655" type="line"/>
      <point x="356" y="922" type="line"/>
      <point x="717" y="281" type="line"/>
    </contour>
  </outline>
</glyph>
<glyph name="uni1FCD0306" format="2">
  <advance width="856"/>
  <anchor x="559" y="1116" name="_top"/>
  <anchor x="639" y="1858" name="top"/>
  <outline>
    <contour>
      <point x="584" y="1217" type="curve" smooth="yes"/>
      <point x="768" y="1217"/>
      <point x="866" y="1315"/>
      <point x="909" y="1477" type="curve"/>
      <point x="766" y="1477" type="line"/>
      <point x="733" y="1380"/>
      <point x="676" y="1352"/>
      <point x="594" y="1352" type="curve" smooth="yes"/>
      <point x="504" y="1352"/>
      <point x="473" y="1386"/>
      <point x="469" y="1477" type="curve"/>
      <point x="330" y="1477" type="line"/>
      <point x="336" y="1315"/>
      <point x="395" y="1217"/>
    </contour>
    <contour>
      <point x="367" y="1518" type="line"/>
      <point x="520" y="1524"/>
      <point x="625" y="1632"/>
      <point x="625" y="1737" type="curve" smooth="yes"/>
      <point x="625" y="1823"/>
      <point x="588" y="1858"/>
      <point x="520" y="1858" type="curve" smooth="yes"/>
      <point x="453" y="1858"/>
      <point x="412" y="1812"/>
      <point x="412" y="1753" type="curve" smooth="yes"/>
      <point x="412" y="1702"/>
      <point x="444" y="1677"/>
      <point x="481" y="1675" type="curve"/>
      <point x="471" y="1622"/>
      <point x="422" y="1597"/>
      <point x="383" y="1589" type="curve"/>
    </contour>
    <contour>
      <point x="756" y="1528" type="curve"/>
      <point x="874" y="1528" type="line"/>
      <point x="881" y="1552" type="line"/>
      <point x="879" y="1612"/>
      <point x="874" y="1761"/>
      <point x="877" y="1841" type="curve"/>
      <point x="672" y="1841" type="line"/>
      <point x="668" y="1821" type="line"/>
      <point x="680" y="1735"/>
      <point x="721" y="1614"/>
    </contour>
  </outline>
</glyph>
<glyph name="uni1FCE0306" format="2">
  <advance width="856"/>
  <anchor x="553" y="1085" name="_top"/>
  <anchor x="682" y="1845" name="top"/>
  <outline>
    <contour>
      <point x="584" y="1217" type="curve" smooth="yes"/>
      <point x="768" y="1217"/>
      <point x="866" y="1315"/>
      <point x="909" y="1477" type="curve"/>
      <point x="766" y="1477" type="line"/>
      <point x="733" y="1380"/>
      <point x="676" y="1352"/>
      <point x="594" y="1352" type="curve" smooth="yes"/>
      <point x="504" y="1352"/>
      <point x="473" y="1386"/>
      <point x="469" y="1477" type="curve"/>
      <point x="330" y="1477" type="line"/>
      <point x="336" y="1315"/>
      <point x="395" y="1217"/>
    </contour>
    <contour>
      <point x="410" y="1507" type="line"/>
      <point x="561" y="1511"/>
      <point x="668" y="1622"/>
      <point x="668" y="1726" type="curve" smooth="yes"/>
      <point x="668" y="1810"/>
      <point x="631" y="1845"/>
      <point x="563" y="1845" type="curve" smooth="yes"/>
      <point x="496" y="1845"/>
      <point x="453" y="1800"/>
      <point x="453" y="1741" type="curve" smooth="yes"/>
      <point x="453" y="1690"/>
      <point x="494" y="1665"/>
      <point x="524" y="1663" type="curve"/>
      <point x="514" y="1612"/>
      <point x="465" y="1585"/>
      <point x="426" y="1579" type="curve"/>
    </contour>
    <contour>
      <point x="666" y="1518" type="line"/>
      <point x="782" y="1518" type="line"/>
      <point x="850" y="1602"/>
      <point x="942" y="1722"/>
      <point x="991" y="1808" type="curve"/>
      <point x="991" y="1829" type="line"/>
      <point x="786" y="1829" type="line"/>
      <point x="752" y="1731"/>
      <point x="696" y="1612"/>
      <point x="666" y="1542" type="curve"/>
    </contour>
  </outline>
</glyph>
<glyph name="w.sc" format="2">
  <advance width="1229"/>
  <anchor x="487" y="0" name="bottom"/>
  <anchor x="741" y="1188" name="top"/>
  <anchor x="1315" y="1188" name="topright"/>
  <outline>
    <contour>
      <point x="104" y="0" type="line"/>
      <point x="383" y="0" type="line"/>
      <point x="584" y="510" type="line" smooth="yes"/>
      <point x="604" y="559"/>
      <point x="621" y="608"/>
      <point x="639" y="659" type="curve"/>
      <point x="641" y="659" type="line"/>
      <point x="635" y="602"/>
      <point x="631" y="543"/>
      <point x="629" y="496" type="curve" smooth="yes"/>
      <point x="616" y="0" type="line"/>
      <point x="899" y="0" type="line"/>
      <point x="1364" y="1188" type="line"/>
      <point x="1116" y="1188" type="line"/>
      <point x="903" y="637" type="line" smooth="yes"/>
      <point x="870" y="551"/>
      <point x="846" y="489"/>
      <point x="827" y="424" type="curve"/>
      <point x="823" y="424" type="line"/>
      <point x="827" y="498"/>
      <point x="831" y="551"/>
      <point x="836" y="637" type="curve" smooth="yes"/>
      <point x="854" y="1188" type="line"/>
      <point x="651" y="1188" type="line"/>
      <point x="424" y="631" type="line" smooth="yes"/>
      <point x="393" y="559"/>
      <point x="369" y="492"/>
      <point x="344" y="426" type="curve"/>
      <point x="342" y="426" type="line"/>
      <point x="346" y="475"/>
      <point x="354" y="545"/>
      <point x="358" y="633" type="curve" smooth="yes"/>
      <point x="383" y="1188" type="line"/>
      <point x="145" y="1188" type="line"/>
    </contour>
  </outline>
</glyph>
